<svg width="371" height="368" viewBox="0 0 371 368" fill="none" xmlns="http://www.w3.org/2000/svg">
<g filter="url(#filter0_d_6915_117)">
<g clip-path="url(#clip0_6915_117)">
<rect x="4" y="3" width="363" height="360" rx="15" fill="#1E1E1E"/>
<path d="M40.6406 32.7188V34.3203H33.6875V35.6094H38.668V39.75H28.6289V40.9609H39.1562V42.582H26.5V38.2656H36.5391V37.1719H26.4805V35.6094H31.5391V34.3203H24.625V32.7188H40.6406ZM33.6875 25.043V26.5273H39.0977V28.1484H33.9219C34.3418 29.3984 36.3926 30.3359 39.918 30.5117L39.2734 32.1328C36.1094 31.9375 33.7266 31.0781 32.6133 29.6523C31.5 31.0781 29.127 31.9375 25.9336 32.1328L25.3281 30.5117C28.8145 30.3359 30.8652 29.3984 31.3242 28.1484H26.168V26.5273H31.5391V25.043H33.6875ZM51.7734 26.4492V28.1094H41.9102V26.4492H45.8555V24.8867H48.0234V26.4492H51.7734ZM46.9102 28.7148C49.3516 28.7148 51.0312 29.8867 51.0508 31.7227C51.0312 33.5195 49.3516 34.7109 46.9102 34.7109C44.4883 34.7109 42.8086 33.5195 42.8281 31.7227C42.8086 29.8867 44.5078 28.7148 46.9102 28.7148ZM46.9102 30.2969C45.6992 30.2773 44.8398 30.8242 44.8594 31.7227C44.8398 32.6211 45.6992 33.168 46.9102 33.168C48.1211 33.168 49 32.6211 49 31.7227C49 30.8242 48.1211 30.2773 46.9102 30.2969ZM56.6562 25.082V34.8281H54.4883V33.5195H51.8711V31.8398H54.4883V30.3555H51.8906V28.6758H54.4883V25.082H56.6562ZM56.6562 35.5703V39.75H47.2031V40.9609H57.125V42.582H45.0352V38.2656H54.4883V37.1523H45.0156V35.5703H56.6562ZM68.7266 26.3711C70.3281 26.3711 71.6465 27.2598 72.4375 28.8125H76.5586V25.082H78.707V42.7578H76.5586V36.0781H72.5938C71.832 37.8359 70.4355 38.8516 68.7266 38.8516C66.0703 38.8516 64.1953 36.4492 64.1953 32.6016C64.1953 28.793 66.0703 26.3711 68.7266 26.3711ZM68.7266 28.3242C67.2617 28.3242 66.2656 29.9062 66.2852 32.6016C66.2656 35.3164 67.2617 36.8984 68.7266 36.8984C70.1914 36.8984 71.168 35.3164 71.1875 32.6016C71.168 29.9062 70.1914 28.3242 68.7266 28.3242ZM73.043 30.5898C73.1699 31.2051 73.2383 31.8789 73.2383 32.6016C73.2383 33.2168 73.1895 33.7832 73.1016 34.3203H76.5586V30.5898H73.043ZM97.3008 35.3555V37.0742H90.2695V42.7383H88.1211V37.0742H81.168V35.3555H97.3008ZM85.2695 25.7852V27.9531H93.1602V25.7852H95.3477V33.5195H83.1211V25.7852H85.2695ZM85.2695 31.7617H93.1602V29.6719H85.2695V31.7617Z" fill="white"/>
<g filter="url(#filter1_d_6915_117)">
<path d="M24 164C24 155.716 30.7157 149 39 149H333C341.284 149 348 155.716 348 164V190C348 198.284 341.284 205 333 205H39C30.7157 205 24 198.284 24 190V164Z" fill="url(#paint0_linear_6915_117)"/>
</g>
<path d="M94.6562 172.039V173.182H92.7959V174.852H94.6562V176.023H92.7959V177.898H91.4043V170.12H92.7959V172.039H94.6562ZM92.7959 178.484V183.245H91.4043V179.612H84.124V178.484H92.7959ZM86.1748 170.882C88.1816 170.882 89.6611 172.171 89.6758 174.017C89.6611 175.862 88.1816 177.151 86.1748 177.151C84.168 177.151 82.6738 175.862 82.6885 174.017C82.6738 172.171 84.168 170.882 86.1748 170.882ZM86.1748 172.068C84.9443 172.068 84.0361 172.845 84.0508 174.017C84.0361 175.203 84.9443 175.979 86.1748 175.965C87.4053 175.979 88.3135 175.203 88.3135 174.017C88.3135 172.845 87.4053 172.068 86.1748 172.068ZM105.76 170.135V174.354H107.664V175.511H105.76V179.949H104.368V170.135H105.76ZM103.284 171.658V172.786H95.4619V171.658H98.6846V170.12H100.076V171.658H103.284ZM99.373 173.416C101.263 173.416 102.552 174.397 102.552 175.892C102.552 177.386 101.263 178.353 99.373 178.353C97.4688 178.353 96.1797 177.386 96.1797 175.892C96.1797 174.397 97.4688 173.416 99.373 173.416ZM99.373 174.485C98.2598 174.485 97.5127 175.027 97.5273 175.892C97.5127 176.741 98.2598 177.269 99.373 177.269C100.486 177.269 101.233 176.741 101.248 175.892C101.233 175.027 100.486 174.485 99.373 174.485ZM106.316 181.839V182.967H97.4395V179.173H98.8311V181.839H106.316ZM124.026 175.877V176.917H118.738V178.016H122.532V180.975H114.886V182.059H122.898V183.113H113.523V180.008H121.155V179.026H113.509V178.016H117.361V176.917H112.088V175.877H124.026ZM118.738 170.062V171.219H122.84V172.288H118.855C119.119 173.401 120.899 174.178 123.44 174.31L123.016 175.364C120.73 175.203 118.87 174.529 118.05 173.372C117.229 174.529 115.369 175.203 113.069 175.364L112.674 174.31C115.193 174.178 116.966 173.401 117.259 172.288H113.274V171.219H117.361V170.062H118.738ZM132.435 171.204V172.273H125.052V171.204H128.128V169.959H129.505V171.204H132.435ZM128.802 172.83C130.589 172.83 131.819 173.694 131.834 175.057C131.819 176.404 130.589 177.283 128.802 177.283C127.015 177.283 125.784 176.404 125.784 175.057C125.784 173.694 127.015 172.83 128.802 172.83ZM128.802 173.855C127.776 173.841 127.088 174.31 127.088 175.057C127.088 175.804 127.776 176.287 128.802 176.287C129.812 176.287 130.516 175.804 130.53 175.057C130.516 174.31 129.812 173.841 128.802 173.855ZM135.965 170.12V177.415H134.588V176.331H132.464V175.247H134.588V173.987H132.479V172.903H134.588V170.12H135.965ZM135.965 178.001V180.975H128.802V182.059H136.331V183.113H127.41V180.008H134.588V179.041H127.381V178.001H135.965Z" fill="white"/>
<g filter="url(#filter2_d_6915_117)">
<circle cx="57" cy="177" r="13" fill="url(#paint1_linear_6915_117)"/>
</g>
<path d="M53.9961 182L53.9814 181.033L57.5996 177.225C58.8521 175.892 59.4526 175.174 59.46 174.192C59.4526 173.101 58.5444 172.398 57.3506 172.391C56.0835 172.398 55.2925 173.196 55.2852 174.383H54.04C54.0254 172.508 55.4756 171.248 57.3945 171.248C59.3208 171.248 60.6831 172.544 60.6904 174.192C60.6831 175.379 60.1338 176.302 58.2588 178.235L55.8271 180.74V180.828H60.8809V182H53.9961Z" fill="black"/>
<g filter="url(#filter3_d_6915_117)">
<path d="M24 235C24 226.716 30.7157 220 39 220H333C341.284 220 348 226.716 348 235V261C348 269.284 341.284 276 333 276H39C30.7157 276 24 269.284 24 261V235Z" fill="url(#paint2_linear_6915_117)"/>
</g>
<path d="M93.3672 241.135V248.562H91.9756V241.135H93.3672ZM93.3672 249.265V254.084H84.7393V249.265H93.3672ZM86.1162 250.378V252.956H92.0049V250.378H86.1162ZM87.2588 242.907C87.2441 244.68 88.5186 246.276 90.5107 246.95L89.8223 248.02C88.2988 247.514 87.1562 246.474 86.5557 245.119C85.9697 246.562 84.8052 247.712 83.2305 248.269L82.542 247.17C84.5928 246.481 85.8379 244.738 85.8379 242.907V241.633H87.2588V242.907ZM105.76 241.135V245.354H107.664V246.511H105.76V250.949H104.368V241.135H105.76ZM103.284 242.658V243.786H95.4619V242.658H98.6846V241.12H100.076V242.658H103.284ZM99.373 244.416C101.263 244.416 102.552 245.397 102.552 246.892C102.552 248.386 101.263 249.353 99.373 249.353C97.4688 249.353 96.1797 248.386 96.1797 246.892C96.1797 245.397 97.4688 244.416 99.373 244.416ZM99.373 245.485C98.2598 245.485 97.5127 246.027 97.5273 246.892C97.5127 247.741 98.2598 248.269 99.373 248.269C100.486 248.269 101.233 247.741 101.248 246.892C101.233 246.027 100.486 245.485 99.373 245.485ZM106.316 252.839V253.967H97.4395V250.173H98.8311V252.839H106.316ZM124.026 246.877V247.917H118.738V249.016H122.532V251.975H114.886V253.059H122.898V254.113H113.523V251.008H121.155V250.026H113.509V249.016H117.361V247.917H112.088V246.877H124.026ZM118.738 241.062V242.219H122.84V243.288H118.855C119.119 244.401 120.899 245.178 123.44 245.31L123.016 246.364C120.73 246.203 118.87 245.529 118.05 244.372C117.229 245.529 115.369 246.203 113.069 246.364L112.674 245.31C115.193 245.178 116.966 244.401 117.259 243.288H113.274V242.219H117.361V241.062H118.738ZM132.435 242.204V243.273H125.052V242.204H128.128V240.959H129.505V242.204H132.435ZM128.802 243.83C130.589 243.83 131.819 244.694 131.834 246.057C131.819 247.404 130.589 248.283 128.802 248.283C127.015 248.283 125.784 247.404 125.784 246.057C125.784 244.694 127.015 243.83 128.802 243.83ZM128.802 244.855C127.776 244.841 127.088 245.31 127.088 246.057C127.088 246.804 127.776 247.287 128.802 247.287C129.812 247.287 130.516 246.804 130.53 246.057C130.516 245.31 129.812 244.841 128.802 244.855ZM135.965 241.12V248.415H134.588V247.331H132.464V246.247H134.588V244.987H132.479V243.903H134.588V241.12H135.965ZM135.965 249.001V251.975H128.802V253.059H136.331V254.113H127.41V251.008H134.588V250.041H127.381V249.001H135.965Z" fill="white"/>
<g filter="url(#filter4_d_6915_117)">
<g filter="url(#filter5_d_6915_117)">
<circle cx="57" cy="248" r="13" fill="url(#paint3_linear_6915_117)"/>
</g>
<path d="M56.6582 253.146C54.5488 253.146 53.0327 252.019 52.9668 250.334H54.2998C54.373 251.345 55.3765 251.975 56.6436 251.975C58.0425 251.975 59.0532 251.22 59.0605 250.114C59.0532 248.957 58.1304 248.144 56.4824 248.137H55.6182V246.979H56.4824C57.7715 246.979 58.6724 246.254 58.665 245.163C58.6724 244.101 57.896 243.398 56.6875 243.391C55.5522 243.398 54.5195 244.021 54.4609 245.061H53.1865C53.2524 243.376 54.8198 242.248 56.7021 242.248C58.7236 242.248 59.9541 243.574 59.9395 245.09C59.9541 246.298 59.251 247.177 58.1377 247.492V247.565C59.522 247.778 60.3569 248.767 60.3496 250.114C60.3569 251.857 58.7749 253.146 56.6582 253.146Z" fill="black"/>
</g>
<g filter="url(#filter6_d_6915_117)">
<g filter="url(#filter7_d_6915_117)">
<path d="M24 93C24 84.7157 30.7157 78 39 78H333C341.284 78 348 84.7157 348 93V119C348 127.284 341.284 134 333 134H39C30.7157 134 24 127.284 24 119V93Z" fill="url(#paint4_linear_6915_117)"/>
</g>
</g>
<path d="M94.4365 104.877V105.917H89.1484V107.016H92.9424V109.975H85.2959V111.059H93.3086V112.113H83.9336V109.008H91.5654V108.026H83.9189V107.016H87.7715V105.917H82.498V104.877H94.4365ZM89.1484 99.0615V100.219H93.25V101.288H89.2656C89.5293 102.401 91.3091 103.178 93.8506 103.31L93.4258 104.364C91.1406 104.203 89.2803 103.529 88.46 102.372C87.6396 103.529 85.7793 104.203 83.4795 104.364L83.084 103.31C85.6035 103.178 87.376 102.401 87.6689 101.288H83.6846V100.219H87.7715V99.0615H89.1484ZM102.845 100.204V101.273H95.4619V100.204H98.5381V98.959H99.915V100.204H102.845ZM99.2119 101.83C100.999 101.83 102.229 102.694 102.244 104.057C102.229 105.404 100.999 106.283 99.2119 106.283C97.4248 106.283 96.1943 105.404 96.1943 104.057C96.1943 102.694 97.4248 101.83 99.2119 101.83ZM99.2119 102.855C98.1865 102.841 97.498 103.31 97.498 104.057C97.498 104.804 98.1865 105.287 99.2119 105.287C100.223 105.287 100.926 104.804 100.94 104.057C100.926 103.31 100.223 102.841 99.2119 102.855ZM106.375 99.1201V106.415H104.998V105.331H102.874V104.247H104.998V102.987H102.889V101.903H104.998V99.1201H106.375ZM106.375 107.001V109.975H99.2119V111.059H106.741V112.113H97.8203V109.008H104.998V108.041H97.791V107.001H106.375ZM114.871 106.811V108.334H116.922V106.811H118.211V112.084H113.567V106.811H114.871ZM114.871 111H116.922V109.389H114.871V111ZM122.02 107.792C122.02 109.169 122.781 110.561 124.407 111.132L123.689 112.187C122.503 111.732 121.734 110.875 121.331 109.828C120.892 110.854 120.115 111.718 118.987 112.187L118.284 111.132C119.866 110.487 120.643 109.096 120.643 107.792V106.723H122.02V107.792ZM115.706 99.6768C117.435 99.6768 118.768 100.658 119.061 102.123H121.624V99.1201H123.016V106.078H121.624V103.266H119.075C118.79 104.774 117.449 105.756 115.706 105.756C113.699 105.756 112.264 104.525 112.264 102.709C112.264 100.922 113.699 99.6768 115.706 99.6768ZM115.706 100.834C114.461 100.834 113.597 101.596 113.597 102.709C113.597 103.837 114.461 104.613 115.706 104.628C116.922 104.613 117.786 103.837 117.786 102.709C117.786 101.596 116.922 100.834 115.706 100.834ZM131.014 99.3984C133.899 99.3984 135.701 100.336 135.701 101.918C135.701 103.471 133.899 104.394 131.014 104.394C128.143 104.394 126.326 103.471 126.326 101.918C126.326 100.336 128.143 99.3984 131.014 99.3984ZM131.014 100.497C128.992 100.497 127.747 101.01 127.762 101.918C127.747 102.797 128.992 103.295 131.014 103.31C133.021 103.295 134.266 102.797 134.266 101.918C134.266 101.01 133.021 100.497 131.014 100.497ZM135.54 107.704V112.084H126.473V107.704H135.54ZM127.85 108.817V110.956H134.192V108.817H127.85ZM137.005 105.404V106.532H125.037V105.404H137.005Z" fill="black"/>
<g filter="url(#filter8_d_6915_117)">
<circle cx="57" cy="106" r="13" fill="url(#paint5_linear_6915_117)"/>
</g>
<path d="M58.7461 100.395V111H57.4131V101.771H57.3545L54.7764 103.485V102.152L57.4131 100.395H58.7461Z" fill="white"/>
</g>
</g>
<defs>
<filter id="filter0_d_6915_117" x="0" y="0" width="371" height="368" filterUnits="userSpaceOnUse" color-interpolation-filters="sRGB">
<feFlood flood-opacity="0" result="BackgroundImageFix"/>
<feColorMatrix in="SourceAlpha" type="matrix" values="0 0 0 0 0 0 0 0 0 0 0 0 0 0 0 0 0 0 127 0" result="hardAlpha"/>
<feOffset dy="1"/>
<feGaussianBlur stdDeviation="2"/>
<feComposite in2="hardAlpha" operator="out"/>
<feColorMatrix type="matrix" values="0 0 0 0 0 0 0 0 0 0 0 0 0 0 0 0 0 0 0.35 0"/>
<feBlend mode="normal" in2="BackgroundImageFix" result="effect1_dropShadow_6915_117"/>
<feBlend mode="normal" in="SourceGraphic" in2="effect1_dropShadow_6915_117" result="shape"/>
</filter>
<filter id="filter1_d_6915_117" x="20" y="146" width="332" height="64" filterUnits="userSpaceOnUse" color-interpolation-filters="sRGB">
<feFlood flood-opacity="0" result="BackgroundImageFix"/>
<feColorMatrix in="SourceAlpha" type="matrix" values="0 0 0 0 0 0 0 0 0 0 0 0 0 0 0 0 0 0 127 0" result="hardAlpha"/>
<feOffset dy="1"/>
<feGaussianBlur stdDeviation="2"/>
<feComposite in2="hardAlpha" operator="out"/>
<feColorMatrix type="matrix" values="0 0 0 0 0 0 0 0 0 0 0 0 0 0 0 0 0 0 0.35 0"/>
<feBlend mode="normal" in2="BackgroundImageFix" result="effect1_dropShadow_6915_117"/>
<feBlend mode="normal" in="SourceGraphic" in2="effect1_dropShadow_6915_117" result="shape"/>
</filter>
<filter id="filter2_d_6915_117" x="40" y="161" width="34" height="34" filterUnits="userSpaceOnUse" color-interpolation-filters="sRGB">
<feFlood flood-opacity="0" result="BackgroundImageFix"/>
<feColorMatrix in="SourceAlpha" type="matrix" values="0 0 0 0 0 0 0 0 0 0 0 0 0 0 0 0 0 0 127 0" result="hardAlpha"/>
<feOffset dy="1"/>
<feGaussianBlur stdDeviation="2"/>
<feComposite in2="hardAlpha" operator="out"/>
<feColorMatrix type="matrix" values="0 0 0 0 0 0 0 0 0 0 0 0 0 0 0 0 0 0 0.35 0"/>
<feBlend mode="normal" in2="BackgroundImageFix" result="effect1_dropShadow_6915_117"/>
<feBlend mode="normal" in="SourceGraphic" in2="effect1_dropShadow_6915_117" result="shape"/>
</filter>
<filter id="filter3_d_6915_117" x="20" y="217" width="332" height="64" filterUnits="userSpaceOnUse" color-interpolation-filters="sRGB">
<feFlood flood-opacity="0" result="BackgroundImageFix"/>
<feColorMatrix in="SourceAlpha" type="matrix" values="0 0 0 0 0 0 0 0 0 0 0 0 0 0 0 0 0 0 127 0" result="hardAlpha"/>
<feOffset dy="1"/>
<feGaussianBlur stdDeviation="2"/>
<feComposite in2="hardAlpha" operator="out"/>
<feColorMatrix type="matrix" values="0 0 0 0 0 0 0 0 0 0 0 0 0 0 0 0 0 0 0.35 0"/>
<feBlend mode="normal" in2="BackgroundImageFix" result="effect1_dropShadow_6915_117"/>
<feBlend mode="normal" in="SourceGraphic" in2="effect1_dropShadow_6915_117" result="shape"/>
</filter>
<filter id="filter4_d_6915_117" x="40" y="232" width="34" height="34" filterUnits="userSpaceOnUse" color-interpolation-filters="sRGB">
<feFlood flood-opacity="0" result="BackgroundImageFix"/>
<feColorMatrix in="SourceAlpha" type="matrix" values="0 0 0 0 0 0 0 0 0 0 0 0 0 0 0 0 0 0 127 0" result="hardAlpha"/>
<feOffset dy="1"/>
<feGaussianBlur stdDeviation="2"/>
<feComposite in2="hardAlpha" operator="out"/>
<feColorMatrix type="matrix" values="0 0 0 0 0 0 0 0 0 0 0 0 0 0 0 0 0 0 0.35 0"/>
<feBlend mode="normal" in2="BackgroundImageFix" result="effect1_dropShadow_6915_117"/>
<feBlend mode="normal" in="SourceGraphic" in2="effect1_dropShadow_6915_117" result="shape"/>
</filter>
<filter id="filter5_d_6915_117" x="40" y="232" width="34" height="34" filterUnits="userSpaceOnUse" color-interpolation-filters="sRGB">
<feFlood flood-opacity="0" result="BackgroundImageFix"/>
<feColorMatrix in="SourceAlpha" type="matrix" values="0 0 0 0 0 0 0 0 0 0 0 0 0 0 0 0 0 0 127 0" result="hardAlpha"/>
<feOffset dy="1"/>
<feGaussianBlur stdDeviation="2"/>
<feComposite in2="hardAlpha" operator="out"/>
<feColorMatrix type="matrix" values="0 0 0 0 0 0 0 0 0 0 0 0 0 0 0 0 0 0 0.35 0"/>
<feBlend mode="normal" in2="BackgroundImageFix" result="effect1_dropShadow_6915_117"/>
<feBlend mode="normal" in="SourceGraphic" in2="effect1_dropShadow_6915_117" result="shape"/>
</filter>
<filter id="filter6_d_6915_117" x="20" y="75" width="332" height="64" filterUnits="userSpaceOnUse" color-interpolation-filters="sRGB">
<feFlood flood-opacity="0" result="BackgroundImageFix"/>
<feColorMatrix in="SourceAlpha" type="matrix" values="0 0 0 0 0 0 0 0 0 0 0 0 0 0 0 0 0 0 127 0" result="hardAlpha"/>
<feOffset dy="1"/>
<feGaussianBlur stdDeviation="2"/>
<feComposite in2="hardAlpha" operator="out"/>
<feColorMatrix type="matrix" values="0 0 0 0 0 0 0 0 0 0 0 0 0 0 0 0 0 0 0.35 0"/>
<feBlend mode="normal" in2="BackgroundImageFix" result="effect1_dropShadow_6915_117"/>
<feBlend mode="normal" in="SourceGraphic" in2="effect1_dropShadow_6915_117" result="shape"/>
</filter>
<filter id="filter7_d_6915_117" x="-10.9" y="47.1" width="393.8" height="125.8" filterUnits="userSpaceOnUse" color-interpolation-filters="sRGB">
<feFlood flood-opacity="0" result="BackgroundImageFix"/>
<feColorMatrix in="SourceAlpha" type="matrix" values="0 0 0 0 0 0 0 0 0 0 0 0 0 0 0 0 0 0 127 0" result="hardAlpha"/>
<feOffset dy="4"/>
<feGaussianBlur stdDeviation="17.45"/>
<feComposite in2="hardAlpha" operator="out"/>
<feColorMatrix type="matrix" values="0 0 0 0 0 0 0 0 0 0 0 0 0 0 0 0 0 0 0.25 0"/>
<feBlend mode="normal" in2="BackgroundImageFix" result="effect1_dropShadow_6915_117"/>
<feBlend mode="normal" in="SourceGraphic" in2="effect1_dropShadow_6915_117" result="shape"/>
</filter>
<filter id="filter8_d_6915_117" x="40" y="90" width="34" height="34" filterUnits="userSpaceOnUse" color-interpolation-filters="sRGB">
<feFlood flood-opacity="0" result="BackgroundImageFix"/>
<feColorMatrix in="SourceAlpha" type="matrix" values="0 0 0 0 0 0 0 0 0 0 0 0 0 0 0 0 0 0 127 0" result="hardAlpha"/>
<feOffset dy="1"/>
<feGaussianBlur stdDeviation="2"/>
<feComposite in2="hardAlpha" operator="out"/>
<feColorMatrix type="matrix" values="0 0 0 0 0 0 0 0 0 0 0 0 0 0 0 0 0 0 0.25 0"/>
<feBlend mode="normal" in2="BackgroundImageFix" result="effect1_dropShadow_6915_117"/>
<feBlend mode="normal" in="SourceGraphic" in2="effect1_dropShadow_6915_117" result="shape"/>
</filter>
<linearGradient id="paint0_linear_6915_117" x1="186" y1="149" x2="186" y2="205" gradientUnits="userSpaceOnUse">
<stop stop-color="#0A0A0A"/>
<stop offset="1" stop-color="#0C0C0C"/>
</linearGradient>
<linearGradient id="paint1_linear_6915_117" x1="57" y1="164" x2="57" y2="190" gradientUnits="userSpaceOnUse">
<stop stop-color="#D8FF0E"/>
<stop offset="1" stop-color="#E0FD48"/>
</linearGradient>
<linearGradient id="paint2_linear_6915_117" x1="186" y1="220" x2="186" y2="276" gradientUnits="userSpaceOnUse">
<stop stop-color="#0A0A0A"/>
<stop offset="1" stop-color="#0C0C0C"/>
</linearGradient>
<linearGradient id="paint3_linear_6915_117" x1="57" y1="235" x2="57" y2="261" gradientUnits="userSpaceOnUse">
<stop stop-color="#D8FF0E"/>
<stop offset="1" stop-color="#E0FD48"/>
</linearGradient>
<linearGradient id="paint4_linear_6915_117" x1="186" y1="78" x2="186" y2="134" gradientUnits="userSpaceOnUse">
<stop stop-color="#D8FF0E"/>
<stop offset="1" stop-color="#E0FD48"/>
</linearGradient>
<linearGradient id="paint5_linear_6915_117" x1="57" y1="93" x2="57" y2="119" gradientUnits="userSpaceOnUse">
<stop stop-color="#0A0A0A"/>
<stop offset="1" stop-color="#0C0C0C"/>
</linearGradient>
<clipPath id="clip0_6915_117">
<rect x="4" y="3" width="363" height="360" rx="15" fill="white"/>
</clipPath>
</defs>
</svg>
