<svg width="371" height="368" viewBox="0 0 371 368" fill="none" xmlns="http://www.w3.org/2000/svg">
<g filter="url(#filter0_d_6915_117)">
<g clip-path="url(#clip0_6915_117)">
<rect x="4" y="3" width="363" height="360" rx="15" fill="#1E1E1E"/>
<g filter="url(#filter1_d_6915_117)">
<path d="M24 164C24 155.716 30.7157 149 39 149H333C341.284 149 348 155.716 348 164V190C348 198.284 341.284 205 333 205H39C30.7157 205 24 198.284 24 190V164Z" fill="url(#paint0_linear_6915_117)"/>
</g>
<path d="M29.9766 30.4727C29.9766 33.207 31.1094 35.9609 33.5703 37.2891L32.3594 38.8906C30.7188 38.0215 29.6055 36.4688 28.9805 34.6133C28.3555 36.6152 27.2422 38.3242 25.582 39.3008L24.3125 37.6602C26.8125 36.2148 27.9258 33.2656 27.9258 30.4727V29.9258H24.918V28.168H27.9258V25.707H29.9766V28.168H32.9258V29.9258H29.9766V30.4727ZM39.7812 25.082V42.7383H37.7109V25.082H39.7812ZM36.1875 25.4141V41.8789H34.1367V33.6562H31.832V31.8594H34.1367V25.4141H36.1875ZM57.9648 34.2812V36.0391H41.8711V34.2812H48.8047V32.7188C45.582 32.4844 43.5312 31.1855 43.5312 29.1445C43.5312 26.9375 46.0508 25.5703 49.8984 25.5703C53.7461 25.5703 56.2461 26.9375 56.2656 29.1445C56.2461 31.1855 54.2148 32.4844 50.9922 32.7188V34.2812H57.9648ZM56.1484 40.6289V42.3867H43.8633V37.25H46.0312V40.6289H56.1484ZM49.8984 27.2891C47.3398 27.3086 45.7773 27.9727 45.7969 29.1445C45.7773 30.375 47.3398 31 49.8984 31C52.4766 31 54.0195 30.375 54.0195 29.1445C54.0195 27.9727 52.4766 27.3086 49.8984 27.2891Z" fill="white"/>
<g filter="url(#filter2_d_6915_117)">
<path d="M24 93C24 84.7157 30.7157 78 39 78H333C341.284 78 348 84.7157 348 93V119C348 127.284 341.284 134 333 134H39C30.7157 134 24 127.284 24 119V93Z" fill="url(#paint1_linear_6915_117)"/>
</g>
<path d="M93.4258 170.12V177.928H92.0342V174.603H89.5879V173.46H92.0342V170.12H93.4258ZM89.0312 178.294C91.7852 178.294 93.4697 179.202 93.4697 180.77C93.4697 182.337 91.7852 183.23 89.0312 183.245C86.2773 183.23 84.5781 182.337 84.5928 180.77C84.5781 179.202 86.2773 178.294 89.0312 178.294ZM89.0312 179.378C87.1123 179.378 85.9697 179.876 85.9697 180.77C85.9697 181.648 87.1123 182.161 89.0312 182.146C90.9502 182.161 92.0928 181.648 92.0928 180.77C92.0928 179.876 90.9502 179.378 89.0312 179.378ZM87.1855 172.435C87.1855 174.104 88.3721 175.716 90.3496 176.39L89.6318 177.488C88.1597 176.976 87.0757 175.928 86.5117 174.632C85.9331 176.104 84.7832 177.283 83.2158 177.854L82.4834 176.741C84.5195 176.038 85.7646 174.266 85.7646 172.449V172.156H82.9229V171.028H89.998V172.156H87.1855V172.435ZM99.9736 172.215C99.9736 173.943 101.175 175.54 103.138 176.185L102.391 177.283C100.955 176.778 99.8784 175.752 99.3145 174.456C98.7358 175.928 97.6226 177.078 96.0918 177.649L95.3447 176.536C97.3955 175.804 98.582 174.061 98.5967 172.098V170.809H99.9736V172.215ZM105.76 170.12V173.416H107.664V174.588H105.76V178.045H104.368V170.12H105.76ZM101.526 178.353C104.222 178.353 105.877 179.246 105.877 180.784C105.877 182.337 104.222 183.23 101.526 183.216C98.8018 183.23 97.1172 182.337 97.1172 180.784C97.1172 179.246 98.8018 178.353 101.526 178.353ZM101.526 179.451C99.6221 179.451 98.4941 179.949 98.5088 180.784C98.4941 181.648 99.6221 182.117 101.526 182.132C103.416 182.117 104.515 181.648 104.515 180.784C104.515 179.949 103.416 179.451 101.526 179.451ZM112.337 174.148C112.337 176.214 113.289 178.323 115.105 179.29L114.329 180.315C113.062 179.642 112.176 178.382 111.707 176.888C111.231 178.492 110.352 179.869 109.085 180.623L108.265 179.568C110.081 178.514 111.019 176.272 111.033 174.148V173.621H108.66V172.479H111.033V170.589H112.337V172.479H114.666V173.621H112.337V174.148ZM119.676 170.12V183.245H118.343V170.12H119.676ZM117.01 170.398V182.586H115.691V176.39H113.802V175.232H115.691V170.398H117.01ZM133.343 177.034V178.177H121.375V177.034H126.663V175.76C124.202 175.621 122.664 174.668 122.664 173.123C122.664 171.497 124.495 170.501 127.352 170.486C130.193 170.501 132.039 171.497 132.039 173.123C132.039 174.668 130.486 175.621 128.04 175.76V177.034H133.343ZM131.995 181.839V182.967H122.884V179.158H124.29V181.839H131.995ZM127.352 171.614C125.345 171.614 124.085 172.186 124.1 173.123C124.085 174.119 125.345 174.661 127.352 174.661C129.358 174.661 130.604 174.119 130.604 173.123C130.604 172.186 129.358 171.614 127.352 171.614Z" fill="black"/>
<g filter="url(#filter3_d_6915_117)">
<circle cx="57" cy="177" r="13" fill="#1E1E1E"/>
</g>
<path d="M53.9961 182L53.9814 181.033L57.5996 177.225C58.8521 175.892 59.4526 175.174 59.46 174.192C59.4526 173.101 58.5444 172.398 57.3506 172.391C56.0835 172.398 55.2925 173.196 55.2852 174.383H54.04C54.0254 172.508 55.4756 171.248 57.3945 171.248C59.3208 171.248 60.6831 172.544 60.6904 174.192C60.6831 175.379 60.1338 176.302 58.2588 178.235L55.8271 180.74V180.828H60.8809V182H53.9961Z" fill="white"/>
<g filter="url(#filter4_d_6915_117)">
<path d="M24 235C24 226.716 30.7157 220 39 220H333C341.284 220 348 226.716 348 235V261C348 269.284 341.284 276 333 276H39C30.7157 276 24 269.284 24 261V235Z" fill="url(#paint2_linear_6915_117)"/>
</g>
<path d="M93.1035 242.38V243.669C93.1035 245.295 93.1035 247.111 92.6055 249.792L91.1992 249.646C91.7119 247.111 91.7119 245.251 91.7119 243.669V243.508H83.7432V242.38H93.1035ZM94.4512 251.315V252.473H82.4834V251.315H87.0391V246.687H88.416V251.315H94.4512ZM99.0801 241.545C100.208 241.545 101.16 241.948 101.775 242.629H104.998V241.12H106.375V247.8H104.998V246.423H101.805C101.189 247.126 100.223 247.536 99.0801 247.536C97.0879 247.536 95.6377 246.32 95.6377 244.533C95.6377 242.775 97.0879 241.545 99.0801 241.545ZM99.0801 242.688C97.8496 242.673 96.9707 243.435 96.9707 244.533C96.9707 245.661 97.8496 246.408 99.0801 246.423C100.281 246.408 101.16 245.661 101.16 244.533C101.16 243.435 100.281 242.673 99.0801 242.688ZM106.375 248.444V251.711H99.2119V252.971H106.844V254.084H97.8203V250.671H104.998V249.528H97.791V248.444H106.375ZM102.376 243.728C102.449 243.984 102.493 244.248 102.493 244.533C102.493 244.812 102.457 245.075 102.391 245.324H104.998V243.728H102.376Z" fill="white"/>
<g filter="url(#filter5_d_6915_117)">
<g filter="url(#filter6_d_6915_117)">
<circle cx="57" cy="248" r="13" fill="url(#paint3_linear_6915_117)"/>
</g>
<path d="M56.6582 253.146C54.5488 253.146 53.0327 252.019 52.9668 250.334H54.2998C54.373 251.345 55.3765 251.975 56.6436 251.975C58.0425 251.975 59.0532 251.22 59.0605 250.114C59.0532 248.957 58.1304 248.144 56.4824 248.137H55.6182V246.979H56.4824C57.7715 246.979 58.6724 246.254 58.665 245.163C58.6724 244.101 57.896 243.398 56.6875 243.391C55.5522 243.398 54.5195 244.021 54.4609 245.061H53.1865C53.2524 243.376 54.8198 242.248 56.7021 242.248C58.7236 242.248 59.9541 243.574 59.9395 245.09C59.9541 246.298 59.251 247.177 58.1377 247.492V247.565C59.522 247.778 60.3569 248.767 60.3496 250.114C60.3569 251.857 58.7749 253.146 56.6582 253.146Z" fill="black"/>
</g>
<path d="M93.4404 99.1201V112.274H92.0488V104.979H89.3389V103.837H92.0488V99.1201H93.4404ZM87.1709 102.812C87.1709 105.038 88.5625 107.426 90.584 108.319L89.749 109.433C88.2329 108.7 87.061 107.169 86.4824 105.375C85.8965 107.287 84.7026 108.92 83.1865 109.696L82.3369 108.612C84.3438 107.66 85.75 105.17 85.7646 102.812V101.581H82.8643V100.438H90.0859V101.581H87.1709V102.812ZM99.373 103.148C99.373 105.214 100.325 107.323 102.142 108.29L101.365 109.315C100.098 108.642 99.2119 107.382 98.7432 105.888C98.2671 107.492 97.3882 108.869 96.1211 109.623L95.3008 108.568C97.1172 107.514 98.0547 105.272 98.0693 103.148V102.621H95.6963V101.479H98.0693V99.5889H99.373V101.479H101.702V102.621H99.373V103.148ZM106.712 99.1201V112.245H105.379V99.1201H106.712ZM104.046 99.3984V111.586H102.728V105.39H100.838V104.232H102.728V99.3984H104.046ZM120.379 106.034V107.177H108.411V106.034H113.699V104.76C111.238 104.621 109.7 103.668 109.7 102.123C109.7 100.497 111.531 99.501 114.388 99.4863C117.229 99.501 119.075 100.497 119.075 102.123C119.075 103.668 117.522 104.621 115.076 104.76V106.034H120.379ZM119.031 110.839V111.967H109.92V108.158H111.326V110.839H119.031ZM114.388 100.614C112.381 100.614 111.121 101.186 111.136 102.123C111.121 103.119 112.381 103.661 114.388 103.661C116.395 103.661 117.64 103.119 117.64 102.123C117.64 101.186 116.395 100.614 114.388 100.614Z" fill="white"/>
<g filter="url(#filter7_d_6915_117)">
<circle cx="57" cy="106" r="13" fill="url(#paint4_linear_6915_117)"/>
</g>
<path d="M58.7461 100.395V111H57.4131V101.771H57.3545L54.7764 103.485V102.152L57.4131 100.395H58.7461Z" fill="black"/>
</g>
</g>
<defs>
<filter id="filter0_d_6915_117" x="0" y="0" width="371" height="368" filterUnits="userSpaceOnUse" color-interpolation-filters="sRGB">
<feFlood flood-opacity="0" result="BackgroundImageFix"/>
<feColorMatrix in="SourceAlpha" type="matrix" values="0 0 0 0 0 0 0 0 0 0 0 0 0 0 0 0 0 0 127 0" result="hardAlpha"/>
<feOffset dy="1"/>
<feGaussianBlur stdDeviation="2"/>
<feComposite in2="hardAlpha" operator="out"/>
<feColorMatrix type="matrix" values="0 0 0 0 0 0 0 0 0 0 0 0 0 0 0 0 0 0 0.35 0"/>
<feBlend mode="normal" in2="BackgroundImageFix" result="effect1_dropShadow_6915_117"/>
<feBlend mode="normal" in="SourceGraphic" in2="effect1_dropShadow_6915_117" result="shape"/>
</filter>
<filter id="filter1_d_6915_117" x="-10.9" y="118.1" width="393.8" height="125.8" filterUnits="userSpaceOnUse" color-interpolation-filters="sRGB">
<feFlood flood-opacity="0" result="BackgroundImageFix"/>
<feColorMatrix in="SourceAlpha" type="matrix" values="0 0 0 0 0 0 0 0 0 0 0 0 0 0 0 0 0 0 127 0" result="hardAlpha"/>
<feOffset dy="4"/>
<feGaussianBlur stdDeviation="17.45"/>
<feComposite in2="hardAlpha" operator="out"/>
<feColorMatrix type="matrix" values="0 0 0 0 0 0 0 0 0 0 0 0 0 0 0 0 0 0 0.25 0"/>
<feBlend mode="normal" in2="BackgroundImageFix" result="effect1_dropShadow_6915_117"/>
<feBlend mode="normal" in="SourceGraphic" in2="effect1_dropShadow_6915_117" result="shape"/>
</filter>
<filter id="filter2_d_6915_117" x="20" y="75" width="332" height="64" filterUnits="userSpaceOnUse" color-interpolation-filters="sRGB">
<feFlood flood-opacity="0" result="BackgroundImageFix"/>
<feColorMatrix in="SourceAlpha" type="matrix" values="0 0 0 0 0 0 0 0 0 0 0 0 0 0 0 0 0 0 127 0" result="hardAlpha"/>
<feOffset dy="1"/>
<feGaussianBlur stdDeviation="2"/>
<feComposite in2="hardAlpha" operator="out"/>
<feColorMatrix type="matrix" values="0 0 0 0 0 0 0 0 0 0 0 0 0 0 0 0 0 0 0.35 0"/>
<feBlend mode="normal" in2="BackgroundImageFix" result="effect1_dropShadow_6915_117"/>
<feBlend mode="normal" in="SourceGraphic" in2="effect1_dropShadow_6915_117" result="shape"/>
</filter>
<filter id="filter3_d_6915_117" x="40" y="161" width="34" height="34" filterUnits="userSpaceOnUse" color-interpolation-filters="sRGB">
<feFlood flood-opacity="0" result="BackgroundImageFix"/>
<feColorMatrix in="SourceAlpha" type="matrix" values="0 0 0 0 0 0 0 0 0 0 0 0 0 0 0 0 0 0 127 0" result="hardAlpha"/>
<feOffset dy="1"/>
<feGaussianBlur stdDeviation="2"/>
<feComposite in2="hardAlpha" operator="out"/>
<feColorMatrix type="matrix" values="0 0 0 0 0 0 0 0 0 0 0 0 0 0 0 0 0 0 0.35 0"/>
<feBlend mode="normal" in2="BackgroundImageFix" result="effect1_dropShadow_6915_117"/>
<feBlend mode="normal" in="SourceGraphic" in2="effect1_dropShadow_6915_117" result="shape"/>
</filter>
<filter id="filter4_d_6915_117" x="20" y="217" width="332" height="64" filterUnits="userSpaceOnUse" color-interpolation-filters="sRGB">
<feFlood flood-opacity="0" result="BackgroundImageFix"/>
<feColorMatrix in="SourceAlpha" type="matrix" values="0 0 0 0 0 0 0 0 0 0 0 0 0 0 0 0 0 0 127 0" result="hardAlpha"/>
<feOffset dy="1"/>
<feGaussianBlur stdDeviation="2"/>
<feComposite in2="hardAlpha" operator="out"/>
<feColorMatrix type="matrix" values="0 0 0 0 0 0 0 0 0 0 0 0 0 0 0 0 0 0 0.35 0"/>
<feBlend mode="normal" in2="BackgroundImageFix" result="effect1_dropShadow_6915_117"/>
<feBlend mode="normal" in="SourceGraphic" in2="effect1_dropShadow_6915_117" result="shape"/>
</filter>
<filter id="filter5_d_6915_117" x="40" y="232" width="34" height="34" filterUnits="userSpaceOnUse" color-interpolation-filters="sRGB">
<feFlood flood-opacity="0" result="BackgroundImageFix"/>
<feColorMatrix in="SourceAlpha" type="matrix" values="0 0 0 0 0 0 0 0 0 0 0 0 0 0 0 0 0 0 127 0" result="hardAlpha"/>
<feOffset dy="1"/>
<feGaussianBlur stdDeviation="2"/>
<feComposite in2="hardAlpha" operator="out"/>
<feColorMatrix type="matrix" values="0 0 0 0 0 0 0 0 0 0 0 0 0 0 0 0 0 0 0.35 0"/>
<feBlend mode="normal" in2="BackgroundImageFix" result="effect1_dropShadow_6915_117"/>
<feBlend mode="normal" in="SourceGraphic" in2="effect1_dropShadow_6915_117" result="shape"/>
</filter>
<filter id="filter6_d_6915_117" x="40" y="232" width="34" height="34" filterUnits="userSpaceOnUse" color-interpolation-filters="sRGB">
<feFlood flood-opacity="0" result="BackgroundImageFix"/>
<feColorMatrix in="SourceAlpha" type="matrix" values="0 0 0 0 0 0 0 0 0 0 0 0 0 0 0 0 0 0 127 0" result="hardAlpha"/>
<feOffset dy="1"/>
<feGaussianBlur stdDeviation="2"/>
<feComposite in2="hardAlpha" operator="out"/>
<feColorMatrix type="matrix" values="0 0 0 0 0 0 0 0 0 0 0 0 0 0 0 0 0 0 0.35 0"/>
<feBlend mode="normal" in2="BackgroundImageFix" result="effect1_dropShadow_6915_117"/>
<feBlend mode="normal" in="SourceGraphic" in2="effect1_dropShadow_6915_117" result="shape"/>
</filter>
<filter id="filter7_d_6915_117" x="40" y="90" width="34" height="34" filterUnits="userSpaceOnUse" color-interpolation-filters="sRGB">
<feFlood flood-opacity="0" result="BackgroundImageFix"/>
<feColorMatrix in="SourceAlpha" type="matrix" values="0 0 0 0 0 0 0 0 0 0 0 0 0 0 0 0 0 0 127 0" result="hardAlpha"/>
<feOffset dy="1"/>
<feGaussianBlur stdDeviation="2"/>
<feComposite in2="hardAlpha" operator="out"/>
<feColorMatrix type="matrix" values="0 0 0 0 0 0 0 0 0 0 0 0 0 0 0 0 0 0 0.25 0"/>
<feBlend mode="normal" in2="BackgroundImageFix" result="effect1_dropShadow_6915_117"/>
<feBlend mode="normal" in="SourceGraphic" in2="effect1_dropShadow_6915_117" result="shape"/>
</filter>
<linearGradient id="paint0_linear_6915_117" x1="186" y1="149" x2="186" y2="205" gradientUnits="userSpaceOnUse">
<stop stop-color="#D8FF0E"/>
<stop offset="1" stop-color="#E0FD48"/>
</linearGradient>
<linearGradient id="paint1_linear_6915_117" x1="186" y1="78" x2="186" y2="134" gradientUnits="userSpaceOnUse">
<stop stop-color="#0A0A0A"/>
<stop offset="1" stop-color="#0C0C0C"/>
</linearGradient>
<linearGradient id="paint2_linear_6915_117" x1="186" y1="220" x2="186" y2="276" gradientUnits="userSpaceOnUse">
<stop stop-color="#0A0A0A"/>
<stop offset="1" stop-color="#0C0C0C"/>
</linearGradient>
<linearGradient id="paint3_linear_6915_117" x1="57" y1="235" x2="57" y2="261" gradientUnits="userSpaceOnUse">
<stop stop-color="#D8FF0E"/>
<stop offset="1" stop-color="#E0FD48"/>
</linearGradient>
<linearGradient id="paint4_linear_6915_117" x1="57" y1="93" x2="57" y2="119" gradientUnits="userSpaceOnUse">
<stop stop-color="#D8FF0E"/>
<stop offset="1" stop-color="#E0FD48"/>
</linearGradient>
<clipPath id="clip0_6915_117">
<rect x="4" y="3" width="363" height="360" rx="15" fill="white"/>
</clipPath>
</defs>
</svg>
