<svg width="802" height="873" viewBox="0 0 802 873" fill="none" xmlns="http://www.w3.org/2000/svg">
<g filter="url(#filter0_d_5725_13)">
<path d="M65.1484 133.44C65.1484 118.104 77.5809 105.672 92.917 105.672H709.38C724.716 105.672 737.148 118.104 737.148 133.44V338.928C737.148 354.264 724.716 366.697 709.38 366.697H92.9171C77.5809 366.697 65.1484 354.264 65.1484 338.928V133.44Z" fill="#101010"/>
</g>
<path d="M254.823 149.035C254.823 157.713 249.146 163.643 239.312 166.174L237.54 162.594C244.952 160.696 249.146 157.044 249.869 152.615H239.456V149.035H254.823ZM242.963 179.624V166.861H264.911V179.624H242.963ZM247.555 176.008H260.391V170.476H247.555V176.008ZM260.283 165.523V147.155H264.911V165.523H260.283ZM281.471 153.627C281.489 156.556 284.038 159.539 289.353 160.605L287.328 164.113C283.459 163.299 280.766 161.419 279.247 158.96C277.783 161.672 275.035 163.751 271.021 164.655L269.069 161.148C274.384 159.918 276.879 156.809 276.879 153.627V153.519H270.262V149.867H276.879V146.974H281.543V149.867H288.124V153.519H281.471V153.627ZM275.179 168.922V165.414H297.09V174.237H279.844V176.261H298.067V179.805H275.215V170.874H292.499V168.922H275.179ZM287.256 158.472V154.82H292.499V147.119H297.09V164.221H292.499V158.472H287.256ZM318.821 149.686C318.803 153.573 322.78 157.858 330.319 158.798L328.511 162.522C322.762 161.69 318.55 159.033 316.398 155.471C314.229 159.015 310.035 161.69 304.358 162.522L302.514 158.798C309.999 157.858 313.958 153.573 313.976 149.686V148.095H318.821V149.686ZM301.357 168.777V165.017H331.367V168.777H318.568V180.022H314.012V168.777H301.357Z" fill="white"/>
<path d="M364.165 158.446V172.591H362.473V158.446H364.165ZM348.437 168.469C351.355 167.33 353.34 164.509 353.34 161.461V159.531H355.076V161.461C355.054 164.401 357.061 167.037 359.935 168.078L359.046 169.445C356.811 168.588 355.076 166.852 354.219 164.629C353.383 166.993 351.626 168.892 349.37 169.792L348.437 168.469ZM351.713 177.298V171.289H353.405V175.866H364.773V177.298H351.713ZM382.909 160.377V162.307C382.888 164.672 382.888 167.319 382.193 171.202L380.458 171.007C381.185 167.319 381.185 164.618 381.195 162.307V161.787H369.307V160.377H382.909ZM367.441 174.977V173.567H374.34V166.668H376.011V173.567H385.014V174.977H367.441ZM393.171 164.347C393.149 167.438 395.383 170.844 398.182 172.178L397.206 173.523C395.036 172.46 393.203 170.182 392.335 167.568C391.446 170.399 389.515 172.894 387.357 174.001L386.315 172.656C389.092 171.3 391.479 167.633 391.5 164.347V161.83H387.009V160.42H397.509V161.83H393.171V164.347ZM399.874 177.71V158.424H401.566V166.234H404.799V167.688H401.566V177.71H399.874Z" fill="white"/>
<g filter="url(#filter1_d_5725_13)">
<rect x="235.461" y="272.281" width="148.099" height="51.8347" rx="25.9174" fill="#0A0A0A"/>
</g>
<path d="M285.318 289.55V298.814H276.033V289.55H285.318ZM278.268 307.079V300.788H280.676V305.127H291.61V307.079H278.268ZM278.398 296.905H282.954V291.481H278.398V296.905ZM288.421 302.176V287.858H290.829V293.607H293.562V295.625H290.829V302.176H288.421ZM300.483 305.539V303.5L306.036 298.141C307.62 296.558 308.444 295.625 308.444 294.301C308.444 292.837 307.284 291.915 305.754 291.915C304.138 291.915 303.097 292.924 303.108 294.518H300.418C300.407 291.546 302.641 289.616 305.776 289.616C308.987 289.616 311.145 291.535 311.156 294.171C311.145 295.939 310.299 297.371 307.208 300.289L304.409 303.066V303.174H311.395V305.539H300.483ZM320.246 289.832V305.539H317.404V292.588H317.317L313.651 294.931V292.349L317.534 289.832H320.246ZM329.531 293C329.542 296.167 330.627 299.465 333.284 301.135L331.961 302.979C330.193 301.916 329.043 300.094 328.392 297.957C327.687 300.311 326.429 302.307 324.585 303.435L323.088 301.634C325.941 299.909 327.199 296.449 327.21 293.108V289.594H329.531V293ZM331.18 296.601V294.605H333.979V288.205H336.256V306.515H333.979V296.601H331.18ZM338.014 307.47V287.858H340.335V307.47H338.014Z" fill="white"/>
<g filter="url(#filter2_d_5725_13)">
<rect x="385.414" y="272.281" width="148.099" height="51.8347" rx="25.9174" fill="#0A0A0A"/>
</g>
<path d="M444.425 287.88V292.132H447.18V294.128H444.425V298.922H442.017V287.88H444.425ZM429.803 297.729V288.835H432.233V295.744C434.738 295.712 437.396 295.484 440.26 294.931L440.542 296.905C437.288 297.556 434.272 297.729 431.43 297.729H429.803ZM431.734 307.21V299.877H444.425V307.21H431.734ZM434.098 305.3H442.06V301.764H434.098V305.3ZM454.599 299.551C454.599 295.473 455.814 292.067 457.854 289.16H460.457C458.96 291.319 457.463 295.668 457.463 299.551C457.463 303.435 458.96 307.795 460.457 309.965H457.854C455.814 307.036 454.599 303.641 454.599 299.551ZM462.54 289.832H466.011L470.675 301.244H470.87L475.534 289.832H479.005V305.539H476.294V294.735H476.142L471.781 305.496H469.764L465.403 294.692H465.273V305.539H462.54V289.832ZM486.946 299.551C486.946 303.641 485.731 307.036 483.691 309.965H481.088C482.585 307.795 484.082 303.435 484.082 299.551C484.082 295.668 482.585 291.319 481.088 289.16H483.691C485.731 292.067 486.946 295.473 486.946 299.551Z" fill="white"/>
<g filter="url(#filter3_d_5725_13)">
<rect x="535.359" y="272.281" width="148.099" height="51.8347" rx="25.9174" fill="#0A0A0A"/>
</g>
<path d="M581.633 305.539V289.832H587.534C591.135 289.832 593.055 291.85 593.066 294.844C593.055 296.981 592.079 298.564 590.235 299.313L593.63 305.539H590.484L587.404 299.79H584.453V305.539H581.633ZM584.453 297.425H587.1C589.226 297.436 590.181 296.525 590.181 294.844C590.181 293.173 589.226 292.197 587.1 292.197H584.453V297.425ZM595.496 305.539V289.832H598.316V296.493H605.627V289.832H608.469V305.539H605.627V298.857H598.316V305.539H595.496ZM615.888 303.001V298.901H611.788V296.493H615.888V292.392H618.275V296.493H622.396V298.901H618.275V303.001H615.888ZM644.98 297.686C644.991 302.762 641.889 305.756 637.778 305.756C633.645 305.756 630.564 302.751 630.575 297.686C630.564 292.609 633.645 289.616 637.778 289.616C641.889 289.616 644.991 292.609 644.98 297.686ZM633.417 297.686C633.406 301.276 635.218 303.218 637.778 303.218C640.348 303.218 642.149 301.276 642.138 297.686C642.149 294.095 640.348 292.154 637.778 292.154C635.218 292.154 633.406 294.095 633.417 297.686Z" fill="white"/>
<path d="M287.515 217.616V233.399H276.153V217.616H287.515ZM278.675 231.311H284.966V219.65H278.675V231.311ZM291.583 239.5V215.203H294.159V224.721H298.064V226.891H294.159V239.5H291.583ZM320.634 234.402V236.599H298.397V234.402H308.159V229.223H300.349V227.189H303.983V219.542H300.295V217.454H318.6V219.542H314.885V227.189H318.518V229.223H310.708V234.402H320.634ZM306.532 227.189H312.363V219.542H306.532V227.189ZM340.898 216.721V218.864C340.898 221.169 340.898 223.677 340.22 227.135H343.718V229.25H333.875V239.527H331.271V229.25H321.563V227.135H337.617C338.335 223.664 338.335 221.128 338.349 218.864V218.837H324.275V216.721H340.898ZM362.987 217.02V227.596H351.625V217.02H362.987ZM353.767 234.836C353.767 231.962 356.913 230.226 361.93 230.226C366.892 230.226 369.984 231.962 369.984 234.836C369.984 237.778 366.892 239.487 361.93 239.5C356.913 239.487 353.767 237.778 353.767 234.836ZM354.147 225.508H360.465V219.081H354.147V225.508ZM356.343 234.836C356.33 236.517 358.418 237.412 361.93 237.439C365.414 237.412 367.475 236.517 367.462 234.836C367.475 233.223 365.414 232.301 361.93 232.287C358.418 232.301 356.33 233.223 356.343 234.836ZM367.19 229.467V215.203H369.767V221.087H373.292V223.203H369.767V229.467H367.19ZM394.045 215.23V233.643H391.468V231.311H386.587V229.494H391.468V215.23H394.045ZM373.733 226.321C378.221 226.28 384.282 226.24 389.462 225.589L389.624 227.433C387.55 227.785 385.367 228.002 383.225 228.152V232.884H380.648V228.287C378.289 228.382 376.025 228.382 374.059 228.382L373.733 226.321ZM375.632 220.437C375.618 217.86 378.072 216.152 381.679 216.152C385.231 216.152 387.699 217.86 387.699 220.437C387.699 223.026 385.231 224.667 381.679 224.667C378.086 224.667 375.618 223.026 375.632 220.437ZM377.096 238.985V231.853H379.645V236.897H394.641V238.985H377.096ZM378.072 220.437C378.059 221.874 379.523 222.769 381.679 222.769C383.753 222.769 385.245 221.874 385.258 220.437C385.245 218.986 383.753 218.05 381.679 218.077C379.523 218.05 378.059 218.986 378.072 220.437ZM419.245 234.429V236.599H397.008V234.429H406.798V230.172H399.72V222.443H413.984V219.026H399.666V216.911H416.533V224.504H402.269V228.057H417.102V230.172H409.347V234.429H419.245ZM434.419 217.562V237.195H431.409V220.545H431.3L426.609 223.609V220.762L431.49 217.562H434.419ZM446.033 217.562V237.195H443.023V220.545H442.914L438.223 223.609V220.762L443.104 217.562H446.033ZM469.497 215.203V227.569H466.921V215.203H469.497ZM449.728 225.969C455.803 224.694 458.975 221.969 459.369 218.403H451.003V216.288H462.202C462.189 222.66 458.026 226.443 450.677 228.057L449.728 225.969ZM453.525 230.687V228.653H469.497V234.755H456.155V237.222H470.311V239.256H453.606V232.829H466.921V230.687H453.525Z" fill="white"/>
<path fill-rule="evenodd" clip-rule="evenodd" d="M255.825 224.262C255.825 226.477 255.242 228.542 254.236 230.281L246.791 240.095C246.274 241.056 245.012 241.056 244.494 240.095L237.049 230.28C236.044 228.541 235.461 226.477 235.461 224.262C235.461 218.068 240.019 213.047 245.643 213.047C251.266 213.047 255.825 218.068 255.825 224.262ZM245.644 227.858C248.2 227.858 250.272 225.786 250.272 223.23C250.272 220.674 248.2 218.602 245.644 218.602C243.088 218.602 241.016 220.674 241.016 223.23C241.016 225.786 243.088 227.858 245.644 227.858Z" fill="#E0FD48"/>
<path d="M689.018 142.695L700.125 153.803L689.018 164.91" stroke="white" stroke-width="3.70248"/>
<g filter="url(#filter4_d_5725_13)">
<path d="M436.148 666.581C436.148 652.332 447.699 640.781 461.948 640.781H711.348C725.597 640.781 737.148 652.332 737.148 666.581V836.861C737.148 851.11 725.597 862.661 711.348 862.661H461.948C447.699 862.661 436.148 851.11 436.148 836.861V666.581Z" fill="url(#paint0_linear_5725_13)"/>
</g>
<path d="M496.38 692.373V695.766H487.512V702.283H499.438V705.777H471.454V702.283H483.245V695.766H474.746V680.85H496.145V684.277H479.046V692.373H496.38ZM512.438 685.284C512.455 688.442 514.639 691.734 519.627 693.045L517.645 696.437C514.168 695.497 511.75 693.481 510.355 690.962C509.012 693.733 506.576 695.917 502.998 696.941L500.949 693.582C505.904 692.238 508.172 688.711 508.172 685.284H502.024V681.891H508.172V678.599H512.505V681.891H518.62V685.284H512.438ZM504.846 702.115V698.688H525.439V709.304H521.139V702.115H504.846ZM521.139 697.445V678.7H525.439V686.225H529.571V689.82H525.439V697.445H521.139ZM565.348 678.7V709.27H561.25V678.7H565.348ZM539.112 691.936C539.112 685.1 541.715 680.867 545.763 680.884C548.316 680.867 550.332 682.546 551.457 685.486H555.069V679.137H559.1V707.859H555.069V698.386H551.474C550.332 701.359 548.333 703.055 545.763 703.055C541.715 703.055 539.112 698.806 539.112 691.936ZM543.009 691.936C542.975 696.639 543.966 698.957 545.763 698.923C547.527 698.957 548.602 696.639 548.619 691.936C548.602 687.25 547.527 684.915 545.763 684.915C543.966 684.915 542.975 687.25 543.009 691.936ZM552.314 688.912C552.448 689.853 552.516 690.861 552.516 691.936C552.516 692.994 552.448 694.002 552.331 694.926H555.069V688.912H552.314ZM594.34 678.7V696.841H590.073V689.618H585.303V686.158H590.073V678.7H594.34ZM568.372 693.481C573.377 691.802 575.662 687.804 575.763 683.974H569.615V680.548H586.21V683.974H580.13C580.214 687.535 582.397 691.13 587.151 692.709L585.034 696.068C581.675 694.976 579.34 692.759 578.013 690.021C576.67 693.129 574.217 695.631 570.589 696.874L568.372 693.481ZM573.377 703.425C573.377 699.713 577.375 697.529 583.892 697.512C590.426 697.529 594.424 699.713 594.441 703.425C594.424 707.137 590.426 709.304 583.892 709.304C577.375 709.304 573.377 707.137 573.377 703.425ZM577.644 703.425C577.644 705.172 579.844 706.045 583.892 706.045C587.957 706.045 590.157 705.172 590.174 703.425C590.157 701.661 587.957 700.788 583.892 700.805C579.844 700.788 577.644 701.661 577.644 703.425ZM610.196 685.62C610.179 691.23 612.732 696.857 617.923 699.058L615.403 702.484C611.909 700.905 609.491 697.848 608.096 694.069C606.719 698.201 604.216 701.527 600.488 703.223L597.901 699.662C603.242 697.412 605.846 691.55 605.863 685.62V681.052H610.196V685.62ZM619.569 709.338V678.7H623.902V709.338H619.569ZM652.289 678.7V687.266H656.421V690.794H652.289V700.603H647.955V678.7H652.289ZM627.833 694.22C634.686 692.322 638.566 688.778 639.238 684.478H629.177V680.984H643.958C643.941 689.248 638.784 695.027 629.613 697.613L627.833 694.22ZM632.402 708.733V698.352H636.735V705.306H653.33V708.733H632.402Z" fill="#0A0C18"/>
<g filter="url(#filter5_d_5725_13)">
<circle cx="683.302" cy="695.287" r="20.1069" fill="#0A0C18"/>
<path d="M675.059 685.664L672.703 688.02" stroke="#E0FD48" stroke-width="1.72" stroke-linecap="round"/>
<path d="M691.543 685.664L693.898 688.02" stroke="#E0FD48" stroke-width="1.72" stroke-linecap="round"/>
<path fill-rule="evenodd" clip-rule="evenodd" d="M683.305 704.508C688.509 704.508 692.727 700.29 692.727 695.086C692.727 689.882 688.509 685.664 683.305 685.664C678.101 685.664 673.883 689.882 673.883 695.086C673.883 700.29 678.101 704.508 683.305 704.508ZM687.005 693.215C687.599 692.473 687.478 691.391 686.737 690.798C685.995 690.204 684.913 690.324 684.319 691.066L682.949 692.779L680.728 691.298C679.937 690.771 678.869 690.985 678.342 691.775C677.815 692.566 678.029 693.634 678.819 694.161L682.025 696.297C682.953 696.916 684.199 696.723 684.896 695.852L687.005 693.215Z" fill="#E0FD48"/>
</g>
<g filter="url(#filter6_d_5725_13)">
<rect x="449.906" y="741.195" width="278.64" height="104.92" rx="25.8" fill="#0B0B0B"/>
</g>
<path d="M507.562 777.192H514.425C517.83 777.192 519.172 778.586 519.172 781.578V812.177C519.172 812.951 518.811 813.312 518.037 813.312H512.722C511.948 813.312 511.587 812.951 511.587 812.177V785.139C511.587 784.416 511.277 784.055 510.503 784.055H507.562C506.788 784.055 506.375 783.694 506.375 782.92V778.328C506.375 777.554 506.788 777.192 507.562 777.192ZM540.064 777.192H561.994C562.768 777.192 563.129 777.554 563.129 778.328V782.92C563.129 783.694 562.768 784.055 561.994 784.055H540.064C534.749 784.055 533.253 785.655 533.253 791.124V792.105H555.493C562.149 792.105 564.523 795.304 564.523 800.825V804.592C564.523 810.062 561.943 813.312 555.131 813.312H540.064C529.641 813.312 525.616 809.597 525.616 799.69V790.815C525.616 780.908 529.641 777.192 540.064 777.192ZM553.945 797.781H533.253V799.638C533.253 805.056 534.749 806.656 540.064 806.656H553.893C556.06 806.656 556.937 805.676 556.937 803.56V800.825C556.937 798.71 556.112 797.781 553.945 797.781ZM571.807 801.96H576.864C577.638 801.96 577.999 802.322 577.999 803.096V808.049C577.999 808.823 577.638 809.184 576.864 809.184H571.807C571.033 809.184 570.62 808.823 570.62 808.049V803.096C570.62 802.322 571.033 801.96 571.807 801.96ZM571.807 786.532H576.864C577.638 786.532 577.999 786.893 577.999 787.667V792.621C577.999 793.395 577.638 793.756 576.864 793.756H571.807C571.033 793.756 570.62 793.395 570.62 792.621V787.667C570.62 786.893 571.033 786.532 571.807 786.532ZM585.047 794.685L608.422 778.74C610.125 777.605 611.26 777.192 613.582 777.192H616.627C619.619 777.192 621.116 778.276 621.116 782.456V799.432H625.347C626.121 799.432 626.482 799.845 626.482 800.619V804.798C626.482 805.572 626.121 805.934 625.347 805.934H621.116V812.177C621.116 812.951 620.755 813.312 619.981 813.312H614.666C613.892 813.312 613.479 812.951 613.479 812.177V805.934H586.337C584.119 805.934 583.035 804.644 583.035 802.786V798.864C583.035 796.955 583.448 795.768 585.047 794.685ZM591.549 799.071C591.549 799.277 591.704 799.432 591.962 799.432H613.479V784.623C613.479 784.21 613.324 784.055 613.066 784.055H612.757C612.344 784.055 612.086 784.158 611.621 784.468L591.859 798.039C591.652 798.194 591.549 798.4 591.549 798.761V799.071ZM645.33 777.192H657.25C667.673 777.192 671.698 780.908 671.698 790.815V799.69C671.698 809.597 667.673 813.312 657.25 813.312H645.33C634.907 813.312 630.882 809.597 630.882 799.69V790.815C630.882 780.908 634.907 777.192 645.33 777.192ZM638.519 791.124V799.38C638.519 804.85 640.015 806.45 645.33 806.45H657.25C662.565 806.45 664.061 804.85 664.061 799.38V791.124C664.061 785.655 662.565 784.055 657.25 784.055H645.33C640.015 784.055 638.519 785.655 638.519 791.124Z" fill="#E0FD48"/>
<g filter="url(#filter7_d_5725_13)">
<path d="M436.148 427.503C436.148 413.254 447.699 401.703 461.948 401.703H711.348C725.597 401.703 737.148 413.254 737.148 427.503V597.783C737.148 612.032 725.597 623.583 711.348 623.583H461.948C447.699 623.583 436.148 612.032 436.148 597.783V427.503Z" fill="url(#paint1_linear_5725_13)"/>
</g>
<path d="M495.709 439.655V446.105H499.841V449.599H495.709V456.889H491.409V439.655H495.709ZM472.697 455.243V441.1H476.997V451.732C480.709 451.648 484.69 451.296 488.923 450.473L489.427 453.966C484.388 454.974 479.634 455.243 475.317 455.243H472.697ZM475.687 469.823V458.266H495.709V469.823H475.687ZM479.886 466.463H491.509V461.592H479.886V466.463ZM529.067 455.243V458.67H501.184V455.243H529.067ZM503.973 446.811C503.973 442.914 508.39 440.529 515.126 440.562C521.811 440.529 526.229 442.914 526.245 446.811C526.229 450.725 521.811 453.127 515.126 453.127C508.39 453.127 503.973 450.725 503.973 446.811ZM504.544 469.655V460.719H508.844V466.228H525.909V469.655H504.544ZM508.441 446.811C508.407 448.709 510.876 449.666 515.126 449.666C519.342 449.666 521.811 448.709 521.811 446.811C521.811 444.963 519.342 443.955 515.126 443.922C510.876 443.955 508.407 444.963 508.441 446.811ZM550.735 446.542C550.718 452.152 553.271 457.779 558.462 459.98L555.942 463.406C552.448 461.827 550.03 458.77 548.636 454.991C547.258 459.123 544.755 462.449 541.027 464.145L538.44 460.584C543.781 458.334 546.385 452.471 546.402 446.542V441.973H550.735V446.542ZM560.108 470.259V439.622H564.441V470.259H560.108ZM592.828 439.622V448.188H596.96V451.716H592.828V461.525H588.495V439.622H592.828ZM568.372 455.142C575.225 453.244 579.105 449.7 579.777 445.4H569.716V441.906H584.497C584.48 450.17 579.323 455.948 570.152 458.535L568.372 455.142ZM572.941 469.655V459.274H577.274V466.228H593.87V469.655H572.941Z" fill="#0A0C18"/>
<g filter="url(#filter8_d_5725_13)">
<circle cx="683.294" cy="456.208" r="20.1069" fill="#0A0C18"/>
<path d="M682.862 455.836L688.091 452.698H677.633L682.862 455.836Z" fill="#E0FD48"/>
<path d="M682.923 456.007L688.739 459.966C689.68 460.606 690.244 461.671 690.244 462.81V464.559C690.244 465.034 689.859 465.419 689.384 465.419H676.462C675.987 465.419 675.602 465.034 675.602 464.559V462.81C675.602 461.671 676.165 460.606 677.106 459.966L682.923 456.007ZM682.923 456.007L688.739 452.047C689.68 451.407 690.244 450.342 690.244 449.204V447.454C690.244 446.979 689.859 446.594 689.384 446.594H676.462C675.987 446.594 675.602 446.979 675.602 447.454V449.204C675.602 450.342 676.165 451.407 677.106 452.047L682.923 456.007Z" stroke="#E0FD48" stroke-width="1.72" stroke-linecap="round" stroke-linejoin="round"/>
<path d="M686.064 465.134V465.566C686.064 465.709 685.949 465.824 685.806 465.824H680.047C679.905 465.824 679.789 465.709 679.789 465.566V465.134C679.789 464.906 679.88 464.688 680.041 464.526L681.954 462.614C682.491 462.076 683.362 462.076 683.9 462.614L685.812 464.526C685.974 464.688 686.064 464.906 686.064 465.134Z" fill="#E0FD48"/>
<path d="M682.914 462.275V456" stroke="#E0FD48" stroke-width="1.72" stroke-linecap="round" stroke-linejoin="round"/>
</g>
<g filter="url(#filter9_d_5725_13)">
<rect x="449.906" y="502.117" width="278.64" height="104.92" rx="25.8" fill="#0B0B0B"/>
</g>
<path d="M524.743 538.114H556.425C557.199 538.114 557.56 538.476 557.56 539.25V543.842C557.56 544.616 557.199 544.977 556.425 544.977H528.613C527.89 544.977 527.581 545.338 527.581 546.061V551.943C527.581 552.666 527.89 553.027 528.613 553.027H549.872C555.806 553.027 558.902 556.226 558.902 561.85V565.824C558.902 570.829 556.012 574.234 549.769 574.234H521.182C520.408 574.234 519.995 573.873 519.995 573.099V568.507C519.995 567.733 520.408 567.372 521.182 567.372H548.53C550.491 567.372 551.265 566.236 551.265 564.43V561.85C551.265 559.941 550.439 558.961 548.582 558.961H524.743C521.285 558.961 519.944 557.619 519.944 554.575V542.5C519.944 539.508 521.285 538.114 524.743 538.114ZM574.387 538.114H579.106C579.829 538.114 580.166 538.451 580.166 539.174V558.245H589.027C591.772 558.245 592.543 558.004 593.795 556.223L599.189 548.613C599.574 548.035 599.912 547.795 600.634 547.795H606.076C606.798 547.795 606.991 548.469 606.558 549.095L600.345 557.619C599.382 558.919 598.419 559.931 597.359 560.701C598.708 561.472 599.815 562.483 600.778 563.784L607.617 573.03C608.002 573.56 607.762 574.234 607.039 574.234H601.645C600.827 574.234 600.538 574.09 600.152 573.56L594.277 565.469C593.121 563.928 592.11 563.447 589.461 563.447H580.166V573.175C580.166 573.897 579.829 574.234 579.106 574.234H574.387C573.664 574.234 573.279 573.897 573.279 573.175V539.174C573.279 538.451 573.664 538.114 574.387 538.114ZM622.881 547.795H647.491C656.16 547.795 658.905 550.588 658.905 557.571V573.175C658.905 573.897 658.568 574.234 657.845 574.234H653.126C652.403 574.234 652.066 573.897 652.066 573.175V559.208C652.066 555.163 651.296 553.911 647.106 553.911H638.63V573.175C638.63 573.897 638.244 574.234 637.522 574.234H632.802C632.08 574.234 631.743 573.897 631.743 573.175V553.911H623.555C619.414 553.911 618.306 555.163 618.306 559.208V573.175C618.306 573.897 617.969 574.234 617.246 574.234H612.527C611.804 574.234 611.419 573.897 611.419 573.175V557.571C611.419 550.588 614.212 547.795 622.881 547.795Z" fill="#E0FD48"/>
<g filter="url(#filter10_d_5725_13)">
<rect x="74.3984" y="5.70312" width="653.488" height="81.4545" rx="22.2149" fill="#101010"/>
</g>
<path d="M142.891 46.4348V64.9472C142.891 65.9291 142.501 66.8709 141.806 67.5652C141.112 68.2596 140.17 68.6496 139.188 68.6496H102.163C101.181 68.6496 100.24 68.2596 99.5454 67.5652C98.851 66.8709 98.4609 65.9291 98.4609 64.9472V27.9224C98.4609 26.9404 98.851 25.9987 99.5454 25.3043C100.24 24.61 101.181 24.2199 102.163 24.2199H120.676C121.167 24.2199 121.638 24.4149 121.985 24.7621C122.332 25.1093 122.527 25.5801 122.527 26.0711C122.527 26.5621 122.332 27.033 121.985 27.3801C121.638 27.7273 121.167 27.9224 120.676 27.9224H102.163V64.9472H139.188V46.4348C139.188 45.9438 139.383 45.4729 139.73 45.1257C140.078 44.7786 140.548 44.5835 141.039 44.5835C141.53 44.5835 142.001 44.7786 142.348 45.1257C142.696 45.4729 142.891 45.9438 142.891 46.4348ZM144.2 32.9346L121.986 55.1495C121.814 55.3213 121.609 55.4576 121.385 55.5505C121.16 55.6434 120.919 55.6911 120.676 55.691H113.271C112.78 55.691 112.309 55.4959 111.962 55.1487C111.615 54.8016 111.42 54.3307 111.42 53.8397V46.4348C111.419 46.1916 111.467 45.9507 111.56 45.726C111.653 45.5013 111.789 45.2971 111.961 45.125L134.176 22.9101C134.348 22.738 134.552 22.6015 134.777 22.5083C135.002 22.4151 135.242 22.3672 135.486 22.3672C135.729 22.3672 135.97 22.4151 136.195 22.5083C136.419 22.6015 136.624 22.738 136.795 22.9101L144.2 30.3151C144.373 30.487 144.509 30.6912 144.602 30.9159C144.695 31.1407 144.743 31.3816 144.743 31.6248C144.743 31.8681 144.695 32.109 144.602 32.3338C144.509 32.5585 144.373 32.7627 144.2 32.9346ZM140.267 31.6248L135.486 26.8371L132.549 29.7736L137.337 34.5614L140.267 31.6248Z" fill="#E0FD48"/>
<path d="M185.7 46.5927L198.279 38.0122C199.195 37.4013 199.806 37.1792 201.056 37.1792H202.694C204.305 37.1792 205.11 37.7623 205.11 40.0116V49.1474H207.387C207.804 49.1474 207.998 49.3696 207.998 49.7861V52.0354C207.998 52.4519 207.804 52.6463 207.387 52.6463H205.11V56.0063C205.11 56.4228 204.916 56.6172 204.499 56.6172H201.639C201.222 56.6172 201 56.4228 201 56.0063V52.6463H186.394C185.2 52.6463 184.617 51.9521 184.617 50.9524V48.842C184.617 47.8145 184.839 47.1759 185.7 46.5927ZM189.199 48.9531C189.199 49.0641 189.282 49.1474 189.421 49.1474H201V41.1778C201 40.9557 200.917 40.8724 200.778 40.8724H200.612C200.389 40.8724 200.251 40.9279 200.001 41.0945L189.365 48.3977C189.254 48.481 189.199 48.5921 189.199 48.7864V48.9531ZM218.141 37.1792H224.556C230.165 37.1792 232.331 39.1785 232.331 44.5101V49.2863C232.331 54.6178 230.165 56.6172 224.556 56.6172H218.141C212.532 56.6172 210.366 54.6178 210.366 49.2863V44.5101C210.366 39.1785 212.532 37.1792 218.141 37.1792ZM214.476 44.6767V49.1197C214.476 52.0631 215.281 52.924 218.141 52.924H224.556C227.416 52.924 228.221 52.0631 228.221 49.1197V44.6767C228.221 41.7332 227.416 40.8724 224.556 40.8724H218.141C215.281 40.8724 214.476 41.7332 214.476 44.6767ZM238.058 37.1792H255.107C255.524 37.1792 255.718 37.3736 255.718 37.7901V40.2615C255.718 40.678 255.524 40.8724 255.107 40.8724H240.14C239.751 40.8724 239.585 41.0668 239.585 41.4555V44.6212C239.585 45.0099 239.751 45.2043 240.14 45.2043H251.581C254.774 45.2043 256.44 46.9259 256.44 49.9527V52.0909C256.44 54.7845 254.885 56.6172 251.525 56.6172H236.141C235.725 56.6172 235.503 56.4228 235.503 56.0063V53.5349C235.503 53.1183 235.725 52.924 236.141 52.924H250.859C251.914 52.924 252.331 52.3131 252.331 51.3412V49.9527C252.331 48.9253 251.886 48.3977 250.887 48.3977H238.058C236.197 48.3977 235.475 47.6757 235.475 46.0374V39.5395C235.475 37.9289 236.197 37.1792 238.058 37.1792Z" fill="white"/>
<path d="M289.925 33.8002V51.698H287.349V43.2643H282.305V41.122H287.349V33.8002H289.925ZM270.021 46.9252C275.431 45.1761 279.105 41.8813 279.634 37.7594H271.268V35.6171H282.468C282.441 41.9627 278.088 46.7354 271.106 48.9862L270.021 46.9252ZM274.278 57.5554V49.854H276.882V55.4673H290.549V57.5554H274.278ZM301.586 35.5087C305.423 35.4951 308.189 37.8679 308.203 41.2847C308.189 44.7016 305.423 47.0744 301.586 47.0879C297.762 47.0744 294.956 44.7016 294.969 41.2847C294.956 37.8679 297.762 35.4951 301.586 35.5087ZM293.803 50.7488C298.223 50.7488 304.352 50.7082 309.667 49.9353L309.857 51.8064C304.366 52.864 298.467 52.8911 294.129 52.8911L293.803 50.7488ZM297.518 41.2847C297.491 43.4406 299.227 44.8372 301.586 44.8372C303.945 44.8372 305.681 43.4406 305.681 41.2847C305.681 39.156 303.945 37.7323 301.586 37.7323C299.227 37.7323 297.491 39.156 297.518 41.2847ZM311.186 58.1249V33.7731H313.762V58.1249H311.186ZM343.781 35.2917V37.434C343.781 39.739 343.781 42.2474 343.103 45.7049H346.601V47.8201H336.758V58.0978H334.154V47.8201H324.446V45.7049H340.5C341.219 42.2339 341.219 39.6983 341.232 37.434V37.4069H327.158V35.2917H343.781ZM370.682 52.9183V55.0334H348.445V52.9183H358.262V47.1693H360.838V52.9183H370.682ZM349.476 46.0575C353.991 45.2982 358.181 41.922 358.181 38.1933V37.9764H350.289V35.8612H368.757V37.9764H360.865V38.1933C360.865 41.922 365.082 45.2304 369.706 45.949L368.675 47.9828C364.743 47.2506 361.123 44.9728 359.537 41.7729C357.977 45.0134 354.384 47.332 350.534 48.0913L349.476 46.0575ZM399.427 33.7731V58.0706H396.824V33.7731H399.427ZM379.468 51.5624C385.922 48.4845 389.081 44.105 389.583 38.4374H380.634V36.3764H392.186C392.186 43.4948 389.163 49.6506 380.824 53.6504L379.468 51.5624ZM425.433 47.0337V49.1218H403.196V47.0337H413.04V44.7287H406.044V38.5458H420.063V36.3764H405.989V34.3426H422.64V40.4441H408.593V42.722H423.128V44.7287H415.589V47.0337H425.433ZM405.691 52.8911V50.8302H422.775V57.8808H420.172V52.8911H405.691ZM453.12 33.8002V41.0136H456.591V43.1287H453.12V50.1522H450.544V33.8002H453.12ZM433.839 47.4405C435.724 47.4405 437.907 47.4405 440.185 47.3862V45.7456C437.419 45.4338 435.656 44.1321 435.683 42.1796C435.656 39.956 437.975 38.573 441.459 38.6001C444.944 38.573 447.222 39.956 447.235 42.1796C447.222 44.1185 445.5 45.4202 442.761 45.7456V47.2913C444.93 47.1829 447.127 47.0066 449.161 46.7083L449.378 48.5523C444.158 49.4607 438.395 49.5014 434.11 49.5014L433.839 47.4405ZM434.463 37.7865V35.8612H440.185V33.5833H442.761V35.8612H448.483V37.7865H434.463ZM436.876 53.2979V51.2912H453.12V58.0706H450.544V53.2979H436.876ZM438.124 42.1796C438.124 43.3186 439.385 44.0643 441.459 44.0507C443.507 44.0643 444.781 43.3186 444.768 42.1796C444.781 41.0136 443.507 40.3356 441.459 40.3627C439.385 40.3356 438.124 41.0136 438.124 42.1796ZM478.15 33.8002V51.4539H475.574V33.8002H478.15ZM458.489 41.4474C458.503 37.9357 461.296 35.4409 464.97 35.4273C468.631 35.4409 471.425 37.9357 471.425 41.4474C471.425 45.0134 468.631 47.4947 464.97 47.4947C461.296 47.4947 458.503 45.0134 458.489 41.4474ZM461.011 41.4474C460.998 43.7389 462.706 45.2439 464.97 45.2439C467.194 45.2439 468.903 43.7389 468.903 41.4474C468.903 39.2102 467.194 37.6781 464.97 37.6781C462.706 37.6781 460.998 39.2102 461.011 41.4474ZM462.259 57.5554V49.6641H464.862V55.4673H478.882V57.5554H462.259ZM500.929 33.7731V43.6169H504.834V45.7592H500.929V58.0706H498.38V33.7731H500.929ZM481.865 39.6848V37.5696H487.858V34.0985H490.434V37.5696H496.264V39.6848H481.865ZM483.112 47.1151C483.112 43.8067 485.661 41.4746 489.16 41.4746C492.644 41.4746 495.193 43.8067 495.207 47.1151C495.193 50.4505 492.644 52.7691 489.16 52.7827C485.661 52.7691 483.112 50.4505 483.112 47.1151ZM485.58 47.1151C485.566 49.2302 487.085 50.6404 489.16 50.6132C491.221 50.6404 492.726 49.2302 492.739 47.1151C492.726 45.0405 491.221 43.6033 489.16 43.5897C487.085 43.6033 485.566 45.0405 485.58 47.1151ZM526.202 33.7731V58.0706H523.599V33.7731H526.202ZM506.244 51.5624C512.698 48.4845 515.857 44.105 516.359 38.4374H507.41V36.3764H518.962C518.962 43.4948 515.938 49.6506 507.6 53.6504L506.244 51.5624Z" fill="white"/>
<mask id="mask0_5725_13" style="mask-type:alpha" maskUnits="userSpaceOnUse" x="659" y="22" width="51" height="51">
<path d="M705.217 22.3594H663.564C662.459 22.3594 661.4 22.7982 660.618 23.5794C659.837 24.3605 659.398 25.42 659.398 26.5247V68.1776C659.398 69.2823 659.837 70.3417 660.618 71.1229C661.4 71.904 662.459 72.3428 663.564 72.3428H705.217C706.321 72.3428 707.381 71.904 708.162 71.1229C708.943 70.3417 709.382 69.2823 709.382 68.1776V26.5247C709.382 25.42 708.943 24.3605 708.162 23.5794C707.381 22.7982 706.321 22.3594 705.217 22.3594ZM696.277 48.8246L687.946 57.1552C687.556 57.5459 687.025 57.7655 686.473 57.7655C685.92 57.7655 685.39 57.5459 684.999 57.1552C684.609 56.7644 684.389 56.2343 684.389 55.6817C684.389 55.129 684.609 54.599 684.999 54.2082L689.776 49.4338H673.977C673.425 49.4338 672.895 49.2143 672.504 48.8238C672.114 48.4332 671.894 47.9035 671.894 47.3511C671.894 46.7988 672.114 46.269 672.504 45.8785C672.895 45.4879 673.425 45.2685 673.977 45.2685H689.776L684.999 40.494C684.609 40.1032 684.389 39.5732 684.389 39.0205C684.389 38.4679 684.609 37.9378 684.999 37.5471C685.39 37.1563 685.92 36.9367 686.473 36.9367C687.025 36.9367 687.556 37.1563 687.946 37.5471L696.277 45.8776C696.471 46.0711 696.624 46.3008 696.729 46.5536C696.834 46.8064 696.888 47.0774 696.888 47.3511C696.888 47.6248 696.834 47.8958 696.729 48.1486C696.624 48.4015 696.471 48.6312 696.277 48.8246Z" fill="url(#paint2_linear_5725_13)"/>
</mask>
<g mask="url(#mask0_5725_13)">
<g filter="url(#filter11_d_5725_13)">
<rect x="661.25" y="24.2109" width="46.281" height="46.281" rx="11.1074" fill="#DCFE2E"/>
</g>
</g>
<g filter="url(#filter12_d_5725_13)">
<path d="M65.1484 429.449C65.1484 414.125 77.5706 401.703 92.8941 401.703H357.403C372.726 401.703 385.148 414.125 385.148 429.449V835.68C385.148 851.004 372.726 863.426 357.403 863.426H92.8941C77.5706 863.426 65.1484 851.004 65.1484 835.68V429.449Z" fill="#101010"/>
</g>
<path d="M130.653 442.187V466.176H126.028V442.187H130.653ZM103.015 458.047C108.525 456.205 110.927 451.634 110.927 447.173V443.994H115.732V447.173C115.696 451.526 118.026 455.771 123.427 457.505L121.079 461.118C117.358 459.89 114.811 457.433 113.348 454.308C111.867 457.668 109.247 460.377 105.4 461.696L103.015 458.047ZM108.615 474.449V463.864H113.276V470.764H131.52V474.449H108.615ZM162.192 445.005V448.112C162.174 452.231 162.174 456.855 160.855 463.827L156.231 463.358C157.495 457.144 157.549 452.52 157.568 448.654H138.203V445.005H162.192ZM135.096 471.017V467.259H145.826V455.952H150.414V467.259H165.082V471.017H135.096ZM188.384 449.593C188.366 455.627 191.112 461.678 196.693 464.044L193.984 467.729C190.226 466.031 187.625 462.744 186.126 458.679C184.645 463.123 181.953 466.7 177.943 468.524L175.161 464.694C180.906 462.274 183.706 455.97 183.724 449.593V444.68H188.384V449.593ZM198.463 475.099V442.151H203.124V475.099H198.463ZM233.651 442.151V451.364H238.095V455.157H233.651V465.706H228.991V442.151H233.651ZM207.351 458.842C214.721 456.801 218.893 452.989 219.616 448.365H208.796V444.608H224.692C224.674 453.495 219.128 459.709 209.265 462.491L207.351 458.842ZM212.264 474.449V463.285H216.924V470.764H234.771V474.449H212.264Z" fill="white"/>
<g filter="url(#filter13_d_5725_13)">
<path fill-rule="evenodd" clip-rule="evenodd" d="M222.508 804.366C277.429 804.366 321.952 759.843 321.952 704.922C321.952 650 277.429 605.477 222.508 605.477C167.586 605.477 123.063 650 123.063 704.922C123.063 759.843 167.586 804.366 222.508 804.366ZM222.508 827.14C290.007 827.14 344.726 772.421 344.726 704.922C344.726 637.422 290.007 582.703 222.508 582.703C155.008 582.703 100.289 637.422 100.289 704.922C100.289 772.421 155.008 827.14 222.508 827.14Z" fill="#35353F"/>
<path fill-rule="evenodd" clip-rule="evenodd" d="M228.084 804.999C213.62 805.805 199.098 803.468 185.536 798.086C167.82 791.056 152.476 779.12 141.303 763.678C130.13 748.236 123.591 729.929 122.454 710.903C121.317 691.877 125.627 672.922 134.881 656.259C144.135 639.596 157.947 625.917 174.699 616.826C191.452 607.735 210.448 603.608 229.462 604.931C248.476 606.254 266.719 612.97 282.051 624.293C293.789 632.961 303.448 644.053 310.409 656.757C310.787 657.446 311.156 658.14 311.518 658.838C311.826 659.433 312.177 659.997 312.565 660.527C315.694 664.799 321.244 666.846 326.284 664.903C331.949 662.719 334.815 656.328 332.13 650.882C331.775 650.161 331.412 649.443 331.043 648.73C330.441 647.569 329.822 646.418 329.184 645.278C320.737 630.169 309.142 616.967 295.112 606.606C276.417 592.8 254.173 584.61 230.988 582.998C207.803 581.385 184.639 586.416 164.213 597.502C143.786 608.587 126.943 625.266 115.66 645.584C104.376 665.902 99.12 689.016 100.507 712.215C101.894 735.415 109.867 757.738 123.491 776.567C137.114 795.395 155.824 809.949 177.426 818.522C193.638 824.955 210.973 827.82 228.263 827.005C229.568 826.943 230.873 826.861 232.176 826.757C232.977 826.694 233.778 826.622 234.578 826.543C240.62 825.943 244.53 820.132 243.39 814.169C242.376 808.864 237.704 805.234 232.424 804.836C231.769 804.786 231.105 804.787 230.437 804.84C229.653 804.902 228.868 804.955 228.084 804.999Z" fill="url(#paint3_linear_5725_13)"/>
<path fill-rule="evenodd" clip-rule="evenodd" d="M222.512 770.962C258.987 770.962 288.556 741.394 288.556 704.919C288.556 668.444 258.987 638.875 222.512 638.875C186.038 638.875 156.469 668.444 156.469 704.919C156.469 741.394 186.038 770.962 222.512 770.962ZM222.512 793.736C271.565 793.736 311.33 753.971 311.33 704.919C311.33 655.866 271.565 616.102 222.512 616.102C173.46 616.102 133.695 655.866 133.695 704.919C133.695 753.971 173.46 793.736 222.512 793.736Z" fill="#35353F"/>
<path fill-rule="evenodd" clip-rule="evenodd" d="M217.954 771.228C209.134 770.622 200.483 768.259 192.524 764.235C181.108 758.463 171.6 749.52 165.141 738.478C158.682 727.437 155.547 714.765 156.111 701.986C156.676 689.206 160.916 676.861 168.323 666.432C175.73 656.002 185.99 647.932 197.87 643.189C209.751 638.447 222.747 637.233 235.3 639.694C247.853 642.155 259.43 648.187 268.64 657.064C275.061 663.254 280.142 670.643 283.62 678.772C283.67 678.89 283.721 679.009 283.771 679.128C284.142 680.009 284.598 680.845 285.126 681.623C288.005 685.865 293.026 688.382 298.103 687.191C304.112 685.782 307.907 679.733 305.755 673.948C305.318 672.773 304.856 671.608 304.37 670.455C304.013 669.606 303.643 668.764 303.26 667.928C298.654 657.874 292.188 648.719 284.151 640.972C271.844 629.109 256.375 621.05 239.6 617.761C222.826 614.472 205.459 616.094 189.583 622.431C173.708 628.769 159.998 639.553 150.1 653.489C140.202 667.426 134.536 683.923 133.782 701C133.028 718.077 137.217 735.009 145.848 749.764C154.479 764.518 167.184 776.469 182.439 784.182C192.401 789.218 203.175 792.308 214.185 793.345C215.101 793.431 216.018 793.503 216.937 793.561C218.186 793.639 219.438 793.692 220.691 793.717C226.862 793.844 231.324 788.268 230.675 782.13C230.126 776.944 226.096 773.033 221.143 771.712C220.234 771.469 219.295 771.314 218.34 771.254C218.211 771.246 218.082 771.237 217.954 771.228Z" fill="url(#paint4_linear_5725_13)"/>
</g>
<path d="M222.37 728.834C233.607 728.834 242.717 719.725 242.717 708.487C242.717 697.25 233.607 688.141 222.37 688.141C211.133 688.141 202.023 697.25 202.023 708.487C202.023 719.725 211.133 728.834 222.37 728.834Z" stroke="#E0FD48" stroke-width="3.69942" stroke-linecap="round" stroke-linejoin="round"/>
<path d="M222.367 708.491L231.616 699.242" stroke="#E0FD48" stroke-width="3.69942" stroke-linecap="round" stroke-linejoin="round"/>
<path d="M216.82 680.742H227.919" stroke="#E0FD48" stroke-width="3.69942" stroke-linecap="round" stroke-linejoin="round"/>
<path opacity="0.8" d="M103.377 526.812L103.359 525.62L107.82 520.924C109.365 519.28 110.105 518.395 110.114 517.185C110.105 515.839 108.986 514.972 107.513 514.963C105.951 514.972 104.975 515.956 104.966 517.419H103.431C103.413 515.107 105.201 513.554 107.568 513.554C109.943 513.554 111.623 515.152 111.632 517.185C111.623 518.648 110.945 519.786 108.633 522.17L105.635 525.259V525.367H111.867V526.812H103.377ZM118.514 526.993C115.615 526.993 113.935 524.555 113.944 520.273C113.935 516.029 115.633 513.554 118.514 513.554C121.386 513.554 123.084 516.029 123.084 520.273C123.084 524.555 121.413 526.993 118.514 526.993ZM115.515 520.273C115.525 523.66 116.617 525.548 118.514 525.548C120.402 525.548 121.504 523.66 121.495 520.273C121.504 516.887 120.393 514.972 118.514 514.963C116.635 514.972 115.525 516.887 115.515 520.273ZM125.252 526.812L125.234 525.62L129.695 520.924C131.24 519.28 131.98 518.395 131.989 517.185C131.98 515.839 130.861 514.972 129.388 514.963C127.826 514.972 126.85 515.956 126.841 517.419H125.306C125.288 515.107 127.076 513.554 129.443 513.554C131.818 513.554 133.498 515.152 133.507 517.185C133.498 518.648 132.82 519.786 130.508 522.17L127.51 525.259V525.367H133.742V526.812H125.252ZM135.494 524.139V522.802L141.383 513.734H143.388V522.712H145.212V524.139H143.388V526.812H141.834V524.139H135.494ZM137.246 522.712H141.834V515.794H141.672L137.246 522.604V522.712ZM147.885 526.921C147.253 526.912 146.711 526.388 146.729 525.747C146.711 525.115 147.253 524.591 147.885 524.591C148.527 524.591 149.051 525.115 149.042 525.747C149.051 526.388 148.527 526.912 147.885 526.921ZM160.693 513.734V526.812H159.049V515.432H158.976L155.797 517.546V515.902L159.049 513.734H160.693ZM168.46 526.993C165.561 526.993 163.881 524.555 163.89 520.273C163.881 516.029 165.579 513.554 168.46 513.554C171.332 513.554 173.03 516.029 173.03 520.273C173.03 524.555 171.359 526.993 168.46 526.993ZM165.461 520.273C165.47 523.66 166.563 525.548 168.46 525.548C170.348 525.548 171.449 523.66 171.44 520.273C171.449 516.887 170.338 514.972 168.46 514.963C166.581 514.972 165.47 516.887 165.461 520.273ZM175.848 526.921C175.216 526.912 174.674 526.388 174.692 525.747C174.674 525.115 175.216 524.591 175.848 524.591C176.489 524.591 177.013 525.115 177.004 525.747C177.013 526.388 176.489 526.912 175.848 526.921ZM188.312 526.993C185.413 526.993 183.733 524.555 183.742 520.273C183.733 516.029 185.431 513.554 188.312 513.554C191.184 513.554 192.882 516.029 192.882 520.273C192.882 524.555 191.211 526.993 188.312 526.993ZM185.313 520.273C185.322 523.66 186.415 525.548 188.312 525.548C190.199 525.548 191.301 523.66 191.292 520.273C191.301 516.887 190.19 514.972 188.312 514.963C186.433 514.972 185.322 516.887 185.313 520.273ZM194.724 524.139V522.802L200.613 513.734H202.618V522.712H204.443V524.139H202.618V526.812H201.065V524.139H194.724ZM196.476 522.712H201.065V515.794H200.902L196.476 522.604V522.712ZM211.65 521.827C211.668 518.422 212.589 515.586 214.251 513.174H215.624C214.405 514.954 213.267 518.612 213.258 521.827C213.267 525.051 214.405 528.7 215.624 530.497H214.251C212.589 528.077 211.668 525.241 211.65 521.827ZM229.732 513.084V514.276C229.732 515.523 229.732 516.986 229.307 518.991H231.664V520.165H216.961V518.991H227.88C228.332 516.968 228.332 515.523 228.323 514.276V514.258H218.821V513.084H229.732ZM218.767 528.059V522.387H229.804V528.059H218.767ZM220.176 526.903H228.395V523.507H220.176V526.903ZM236.957 521.827C236.939 525.241 236.018 528.077 234.356 530.497H232.983C234.202 528.7 235.34 525.051 235.349 521.827C235.34 518.612 234.202 514.954 232.983 513.174H234.356C236.018 515.586 236.939 518.422 236.957 521.827ZM108.001 538.734V551.812H106.357V540.432H106.285L103.106 542.546V540.902L106.357 538.734H108.001ZM116.039 551.993C113.772 551.966 111.271 550.62 111.271 545.779C111.271 541.146 113.167 538.554 116.238 538.554C118.541 538.554 120.149 539.972 120.483 542.022H118.875C118.577 540.866 117.692 539.999 116.238 539.999C114.088 539.999 112.797 541.832 112.806 544.984H112.969C113.718 543.892 114.919 543.25 116.328 543.25C118.65 543.25 120.591 545.057 120.591 547.586C120.591 550.051 118.794 552.02 116.039 551.993ZM113.023 547.622C113.032 549.157 114.287 550.557 116.039 550.566C117.728 550.557 119.011 549.229 119.02 547.604C119.011 545.996 117.782 544.686 116.075 544.677C114.359 544.686 113.041 546.077 113.023 547.622ZM127.961 541.534C127.952 544.47 129.948 547.414 132.315 548.489L131.448 549.609C129.614 548.724 128.034 546.818 127.266 544.533C126.525 546.953 124.945 548.986 123.066 549.934L122.163 548.742C124.556 547.649 126.534 544.578 126.552 541.534V538.608H127.961V541.534ZM134.067 553.312V537.217H135.494V553.312H134.067ZM148.084 538.734V551.812H146.44V540.432H146.368L143.189 542.546V540.902L146.44 538.734H148.084ZM155.833 551.993C153.476 551.993 151.688 550.539 151.588 548.525H153.16C153.277 549.69 154.415 550.557 155.833 550.566C157.531 550.557 158.76 549.32 158.76 547.676C158.76 545.978 157.486 544.723 155.725 544.714C154.623 544.695 153.765 545.039 153.286 545.888H151.715L152.636 538.734H159.717V540.18H153.991L153.503 544.009H153.63C154.217 543.557 155.093 543.25 156.014 543.25C158.507 543.25 160.34 545.093 160.349 547.64C160.34 550.169 158.444 551.993 155.833 551.993ZM176.715 545.725V546.881H170.176V550.024H168.767V546.881H162.011V545.725H176.715ZM163.89 552.932V548.543H165.299V551.74H175.071V552.932H163.89ZM163.98 544.154V537.741H165.389V539.8H173.337V537.741H174.746V544.154H163.98ZM165.389 542.997H173.337V540.884H165.389V542.997Z" fill="white"/>
<circle cx="148.5" cy="190.75" r="46.5" fill="white"/>
<path d="M130.764 177.167C139.547 178.313 146.244 173.189 148.494 170.484V212.218C132.237 203.326 129.9 185.146 130.764 177.167Z" fill="black"/>
<path d="M166.224 177.237C157.441 178.383 150.745 173.26 148.494 170.555V212.288C164.751 203.396 167.088 185.216 166.224 177.237Z" fill="black"/>
<defs>
<filter id="filter0_d_5725_13" x="0.540169" y="48.4686" width="801.217" height="390.24" filterUnits="userSpaceOnUse" color-interpolation-filters="sRGB">
<feFlood flood-opacity="0" result="BackgroundImageFix"/>
<feColorMatrix in="SourceAlpha" type="matrix" values="0 0 0 0 0 0 0 0 0 0 0 0 0 0 0 0 0 0 127 0" result="hardAlpha"/>
<feOffset dy="7.40496"/>
<feGaussianBlur stdDeviation="32.3041"/>
<feComposite in2="hardAlpha" operator="out"/>
<feColorMatrix type="matrix" values="0 0 0 0 0 0 0 0 0 0 0 0 0 0 0 0 0 0 0.25 0"/>
<feBlend mode="normal" in2="BackgroundImageFix" result="effect1_dropShadow_5725_13"/>
<feBlend mode="normal" in="SourceGraphic" in2="effect1_dropShadow_5725_13" result="shape"/>
</filter>
<filter id="filter1_d_5725_13" x="228.056" y="266.728" width="162.908" height="66.6459" filterUnits="userSpaceOnUse" color-interpolation-filters="sRGB">
<feFlood flood-opacity="0" result="BackgroundImageFix"/>
<feColorMatrix in="SourceAlpha" type="matrix" values="0 0 0 0 0 0 0 0 0 0 0 0 0 0 0 0 0 0 127 0" result="hardAlpha"/>
<feOffset dy="1.85124"/>
<feGaussianBlur stdDeviation="3.70248"/>
<feComposite in2="hardAlpha" operator="out"/>
<feColorMatrix type="matrix" values="0 0 0 0 0 0 0 0 0 0 0 0 0 0 0 0 0 0 0.35 0"/>
<feBlend mode="normal" in2="BackgroundImageFix" result="effect1_dropShadow_5725_13"/>
<feBlend mode="normal" in="SourceGraphic" in2="effect1_dropShadow_5725_13" result="shape"/>
</filter>
<filter id="filter2_d_5725_13" x="378.009" y="266.728" width="162.908" height="66.6459" filterUnits="userSpaceOnUse" color-interpolation-filters="sRGB">
<feFlood flood-opacity="0" result="BackgroundImageFix"/>
<feColorMatrix in="SourceAlpha" type="matrix" values="0 0 0 0 0 0 0 0 0 0 0 0 0 0 0 0 0 0 127 0" result="hardAlpha"/>
<feOffset dy="1.85124"/>
<feGaussianBlur stdDeviation="3.70248"/>
<feComposite in2="hardAlpha" operator="out"/>
<feColorMatrix type="matrix" values="0 0 0 0 0 0 0 0 0 0 0 0 0 0 0 0 0 0 0.35 0"/>
<feBlend mode="normal" in2="BackgroundImageFix" result="effect1_dropShadow_5725_13"/>
<feBlend mode="normal" in="SourceGraphic" in2="effect1_dropShadow_5725_13" result="shape"/>
</filter>
<filter id="filter3_d_5725_13" x="527.954" y="266.728" width="162.908" height="66.6459" filterUnits="userSpaceOnUse" color-interpolation-filters="sRGB">
<feFlood flood-opacity="0" result="BackgroundImageFix"/>
<feColorMatrix in="SourceAlpha" type="matrix" values="0 0 0 0 0 0 0 0 0 0 0 0 0 0 0 0 0 0 127 0" result="hardAlpha"/>
<feOffset dy="1.85124"/>
<feGaussianBlur stdDeviation="3.70248"/>
<feComposite in2="hardAlpha" operator="out"/>
<feColorMatrix type="matrix" values="0 0 0 0 0 0 0 0 0 0 0 0 0 0 0 0 0 0 0.35 0"/>
<feBlend mode="normal" in2="BackgroundImageFix" result="effect1_dropShadow_5725_13"/>
<feBlend mode="normal" in="SourceGraphic" in2="effect1_dropShadow_5725_13" result="shape"/>
</filter>
<filter id="filter4_d_5725_13" x="429.268" y="635.621" width="314.76" height="235.643" filterUnits="userSpaceOnUse" color-interpolation-filters="sRGB">
<feFlood flood-opacity="0" result="BackgroundImageFix"/>
<feColorMatrix in="SourceAlpha" type="matrix" values="0 0 0 0 0 0 0 0 0 0 0 0 0 0 0 0 0 0 127 0" result="hardAlpha"/>
<feOffset dy="1.72"/>
<feGaussianBlur stdDeviation="3.44"/>
<feComposite in2="hardAlpha" operator="out"/>
<feColorMatrix type="matrix" values="0 0 0 0 0 0 0 0 0 0 0 0 0 0 0 0 0 0 0.35 0"/>
<feBlend mode="normal" in2="BackgroundImageFix" result="effect1_dropShadow_5725_13"/>
<feBlend mode="normal" in="SourceGraphic" in2="effect1_dropShadow_5725_13" result="shape"/>
</filter>
<filter id="filter5_d_5725_13" x="656.315" y="670.02" width="53.9748" height="53.9709" filterUnits="userSpaceOnUse" color-interpolation-filters="sRGB">
<feFlood flood-opacity="0" result="BackgroundImageFix"/>
<feColorMatrix in="SourceAlpha" type="matrix" values="0 0 0 0 0 0 0 0 0 0 0 0 0 0 0 0 0 0 127 0" result="hardAlpha"/>
<feOffset dy="1.72"/>
<feGaussianBlur stdDeviation="3.44"/>
<feComposite in2="hardAlpha" operator="out"/>
<feColorMatrix type="matrix" values="0 0 0 0 0 0 0 0 0 0 0 0 0 0 0 0 0 0 0.25 0"/>
<feBlend mode="normal" in2="BackgroundImageFix" result="effect1_dropShadow_5725_13"/>
<feBlend mode="normal" in="SourceGraphic" in2="effect1_dropShadow_5725_13" result="shape"/>
</filter>
<filter id="filter6_d_5725_13" x="443.026" y="736.035" width="292.401" height="118.682" filterUnits="userSpaceOnUse" color-interpolation-filters="sRGB">
<feFlood flood-opacity="0" result="BackgroundImageFix"/>
<feColorMatrix in="SourceAlpha" type="matrix" values="0 0 0 0 0 0 0 0 0 0 0 0 0 0 0 0 0 0 127 0" result="hardAlpha"/>
<feOffset dy="1.72"/>
<feGaussianBlur stdDeviation="3.44"/>
<feComposite in2="hardAlpha" operator="out"/>
<feColorMatrix type="matrix" values="0 0 0 0 0 0 0 0 0 0 0 0 0 0 0 0 0 0 0.25 0"/>
<feBlend mode="normal" in2="BackgroundImageFix" result="effect1_dropShadow_5725_13"/>
<feBlend mode="normal" in="SourceGraphic" in2="effect1_dropShadow_5725_13" result="shape"/>
</filter>
<filter id="filter7_d_5725_13" x="429.268" y="396.543" width="314.76" height="235.643" filterUnits="userSpaceOnUse" color-interpolation-filters="sRGB">
<feFlood flood-opacity="0" result="BackgroundImageFix"/>
<feColorMatrix in="SourceAlpha" type="matrix" values="0 0 0 0 0 0 0 0 0 0 0 0 0 0 0 0 0 0 127 0" result="hardAlpha"/>
<feOffset dy="1.72"/>
<feGaussianBlur stdDeviation="3.44"/>
<feComposite in2="hardAlpha" operator="out"/>
<feColorMatrix type="matrix" values="0 0 0 0 0 0 0 0 0 0 0 0 0 0 0 0 0 0 0.35 0"/>
<feBlend mode="normal" in2="BackgroundImageFix" result="effect1_dropShadow_5725_13"/>
<feBlend mode="normal" in="SourceGraphic" in2="effect1_dropShadow_5725_13" result="shape"/>
</filter>
<filter id="filter8_d_5725_13" x="656.307" y="430.942" width="53.9748" height="53.9709" filterUnits="userSpaceOnUse" color-interpolation-filters="sRGB">
<feFlood flood-opacity="0" result="BackgroundImageFix"/>
<feColorMatrix in="SourceAlpha" type="matrix" values="0 0 0 0 0 0 0 0 0 0 0 0 0 0 0 0 0 0 127 0" result="hardAlpha"/>
<feOffset dy="1.72"/>
<feGaussianBlur stdDeviation="3.44"/>
<feComposite in2="hardAlpha" operator="out"/>
<feColorMatrix type="matrix" values="0 0 0 0 0 0 0 0 0 0 0 0 0 0 0 0 0 0 0.25 0"/>
<feBlend mode="normal" in2="BackgroundImageFix" result="effect1_dropShadow_5725_13"/>
<feBlend mode="normal" in="SourceGraphic" in2="effect1_dropShadow_5725_13" result="shape"/>
</filter>
<filter id="filter9_d_5725_13" x="443.026" y="496.957" width="292.401" height="118.682" filterUnits="userSpaceOnUse" color-interpolation-filters="sRGB">
<feFlood flood-opacity="0" result="BackgroundImageFix"/>
<feColorMatrix in="SourceAlpha" type="matrix" values="0 0 0 0 0 0 0 0 0 0 0 0 0 0 0 0 0 0 127 0" result="hardAlpha"/>
<feOffset dy="1.72"/>
<feGaussianBlur stdDeviation="3.44"/>
<feComposite in2="hardAlpha" operator="out"/>
<feColorMatrix type="matrix" values="0 0 0 0 0 0 0 0 0 0 0 0 0 0 0 0 0 0 0.25 0"/>
<feBlend mode="normal" in2="BackgroundImageFix" result="effect1_dropShadow_5725_13"/>
<feBlend mode="normal" in="SourceGraphic" in2="effect1_dropShadow_5725_13" result="shape"/>
</filter>
<filter id="filter10_d_5725_13" x="66.9935" y="0.149406" width="668.298" height="96.263" filterUnits="userSpaceOnUse" color-interpolation-filters="sRGB">
<feFlood flood-opacity="0" result="BackgroundImageFix"/>
<feColorMatrix in="SourceAlpha" type="matrix" values="0 0 0 0 0 0 0 0 0 0 0 0 0 0 0 0 0 0 127 0" result="hardAlpha"/>
<feOffset dy="1.85124"/>
<feGaussianBlur stdDeviation="3.70248"/>
<feComposite in2="hardAlpha" operator="out"/>
<feColorMatrix type="matrix" values="0 0 0 0 0 0 0 0 0 0 0 0 0 0 0 0 0 0 0.25 0"/>
<feBlend mode="normal" in2="BackgroundImageFix" result="effect1_dropShadow_5725_13"/>
<feBlend mode="normal" in="SourceGraphic" in2="effect1_dropShadow_5725_13" result="shape"/>
</filter>
<filter id="filter11_d_5725_13" x="653.845" y="18.6572" width="61.0912" height="61.0912" filterUnits="userSpaceOnUse" color-interpolation-filters="sRGB">
<feFlood flood-opacity="0" result="BackgroundImageFix"/>
<feColorMatrix in="SourceAlpha" type="matrix" values="0 0 0 0 0 0 0 0 0 0 0 0 0 0 0 0 0 0 127 0" result="hardAlpha"/>
<feOffset dy="1.85124"/>
<feGaussianBlur stdDeviation="3.70248"/>
<feComposite in2="hardAlpha" operator="out"/>
<feColorMatrix type="matrix" values="0 0 0 0 0 0 0 0 0 0 0 0 0 0 0 0 0 0 0.35 0"/>
<feBlend mode="normal" in2="BackgroundImageFix" result="effect1_dropShadow_5725_13"/>
<feBlend mode="normal" in="SourceGraphic" in2="effect1_dropShadow_5725_13" result="shape"/>
</filter>
<filter id="filter12_d_5725_13" x="57.7496" y="396.154" width="334.798" height="476.516" filterUnits="userSpaceOnUse" color-interpolation-filters="sRGB">
<feFlood flood-opacity="0" result="BackgroundImageFix"/>
<feColorMatrix in="SourceAlpha" type="matrix" values="0 0 0 0 0 0 0 0 0 0 0 0 0 0 0 0 0 0 127 0" result="hardAlpha"/>
<feOffset dy="1.84971"/>
<feGaussianBlur stdDeviation="3.69942"/>
<feComposite in2="hardAlpha" operator="out"/>
<feColorMatrix type="matrix" values="0 0 0 0 0 0 0 0 0 0 0 0 0 0 0 0 0 0 0.35 0"/>
<feBlend mode="normal" in2="BackgroundImageFix" result="effect1_dropShadow_5725_13"/>
<feBlend mode="normal" in="SourceGraphic" in2="effect1_dropShadow_5725_13" result="shape"/>
</filter>
<filter id="filter13_d_5725_13" x="92.8902" y="577.154" width="259.235" height="259.235" filterUnits="userSpaceOnUse" color-interpolation-filters="sRGB">
<feFlood flood-opacity="0" result="BackgroundImageFix"/>
<feColorMatrix in="SourceAlpha" type="matrix" values="0 0 0 0 0 0 0 0 0 0 0 0 0 0 0 0 0 0 127 0" result="hardAlpha"/>
<feOffset dy="1.84971"/>
<feGaussianBlur stdDeviation="3.69942"/>
<feComposite in2="hardAlpha" operator="out"/>
<feColorMatrix type="matrix" values="0 0 0 0 0 0 0 0 0 0 0 0 0 0 0 0 0 0 0.35 0"/>
<feBlend mode="normal" in2="BackgroundImageFix" result="effect1_dropShadow_5725_13"/>
<feBlend mode="normal" in="SourceGraphic" in2="effect1_dropShadow_5725_13" result="shape"/>
</filter>
<linearGradient id="paint0_linear_5725_13" x1="586.648" y1="640.781" x2="586.648" y2="862.661" gradientUnits="userSpaceOnUse">
<stop stop-color="#F0F0F0"/>
<stop offset="1" stop-color="white"/>
</linearGradient>
<linearGradient id="paint1_linear_5725_13" x1="586.648" y1="401.703" x2="586.648" y2="623.583" gradientUnits="userSpaceOnUse">
<stop stop-color="#D8FF0E"/>
<stop offset="1" stop-color="#E0FD48"/>
</linearGradient>
<linearGradient id="paint2_linear_5725_13" x1="684.39" y1="22.3594" x2="684.39" y2="72.3428" gradientUnits="userSpaceOnUse">
<stop stop-color="#D8FF0E"/>
<stop offset="1" stop-color="#E0FD48"/>
</linearGradient>
<linearGradient id="paint3_linear_5725_13" x1="321.952" y1="644.951" x2="247.559" y2="811.199" gradientUnits="userSpaceOnUse">
<stop stop-color="#E0FD48"/>
<stop offset="1" stop-color="#35353F"/>
</linearGradient>
<linearGradient id="paint4_linear_5725_13" x1="292.482" y1="667.794" x2="231.622" y2="780.072" gradientUnits="userSpaceOnUse">
<stop stop-color="#E0FD48"/>
<stop offset="1" stop-color="#35353F"/>
</linearGradient>
</defs>
</svg>
