<svg width="636" height="686" viewBox="0 0 636 686" fill="none" xmlns="http://www.w3.org/2000/svg">
<g filter="url(#filter0_d_5013_6344)">
<path d="M79.6875 50.2015C79.6875 27.4077 98.1655 8.92969 120.959 8.92969H517.169C539.963 8.92969 558.441 27.4077 558.441 50.2015V600.492C558.441 623.286 539.963 641.764 517.169 641.764H120.959C98.1655 641.764 79.6875 623.286 79.6875 600.492V50.2015Z" fill="#1E1E1E"/>
</g>
<path d="M337.927 163.011V168.492H318.904V184.936H312.133V168.492H293.324V163.011H337.927ZM295.527 154.788C305.415 153.579 310.897 148.796 311.622 143.987H297.354V138.613H333.951V143.987H319.683C320.382 148.796 325.782 153.579 335.832 154.788L333.36 160.162C324.761 159.007 318.608 155.353 315.652 150.328C312.67 155.353 306.571 159.007 298.053 160.162L295.527 154.788ZM382.101 136.087V173.329H375.276V164.085H368.666V158.658H375.276V153.767H368.666V148.232H375.276V136.087H382.101ZM340.991 146.62V141.192H351.524V135.98H358.348V141.192H368.183V146.62H340.991ZM343.409 157.959C343.355 152.316 348.219 148.34 354.855 148.34C361.573 148.34 366.409 152.316 366.463 157.959C366.409 163.602 361.573 167.525 354.855 167.525C348.219 167.525 343.355 163.602 343.409 157.959ZM349.535 184.076V170.158H356.468V178.595H383.122V184.076H349.535ZM349.804 157.959C349.777 160.78 351.873 162.312 354.855 162.312C357.811 162.312 359.987 160.78 360.014 157.959C359.987 155.218 357.811 153.687 354.855 153.66C351.873 153.687 349.777 155.218 349.804 157.959ZM406.768 143.664C406.741 149.764 410.153 155.675 417.892 158.12L414.237 163.548C408.998 161.775 405.397 158.255 403.328 153.821C401.179 158.658 397.336 162.446 391.828 164.408L388.12 158.926C396.315 156.32 399.808 149.925 399.835 143.234V138.559H406.768V143.664ZM396.073 172.791V167.363H429.661V184.936H422.836V172.791H396.073ZM413.646 150.758V145.115H422.836V136.033H429.661V165.16H422.836V150.758H413.646Z" fill="white"/>
<path d="M316.798 85.2146V106.495H313.186V85.2146H316.798ZM292.55 99.6275C297.274 97.967 299.692 93.8559 299.676 89.6643V86.8268H303.384V89.6643C303.368 93.727 305.754 97.5639 310.381 99.1116L308.543 101.949C305.222 100.788 302.852 98.4668 301.562 95.4842C300.273 98.6763 297.854 101.224 294.42 102.465L292.55 99.6275ZM297.516 113.75V104.464H301.127V110.848H317.604V113.75H297.516ZM344.849 87.8586V90.6638C344.817 94.2912 344.817 98.3378 343.689 104.432L340.077 104.045C341.222 98.37 341.222 94.2267 341.238 90.7283H323.827V87.8586H344.849ZM321.054 110.558V107.624H330.856V97.4995H334.403V107.624H347.622V110.558H321.054ZM360.036 93.469C360.02 97.967 362.729 103.094 367.323 105.238L365.324 108.075C362.035 106.528 359.601 103.4 358.295 99.7565C356.973 103.755 354.426 107.173 351.072 108.785L348.977 105.98C353.62 103.771 356.441 98.3217 356.457 93.469V91.0185H350.105V88.0521H366.13V91.0185H360.036V93.469ZM368.839 114.331V85.1824H372.418V96.5321H376.9V99.5308H372.418V114.331H368.839Z" fill="white"/>
<path d="M477.311 153.113V172.11H474.414V153.113H477.311ZM451.844 169.552V155.107H454.815V167.031C460.345 166.994 465.292 166.618 470.615 165.489L471.066 167.972C465.405 169.119 460.326 169.514 454.552 169.552H451.844ZM455.605 186.103V173.652H477.311V186.103H455.605ZM458.502 183.696H474.414V176.022H458.502V183.696Z" fill="white"/>
<g filter="url(#filter1_d_5013_6344)">
<circle cx="178.743" cy="129.997" r="68.7864" fill="black"/>
<path d="M152.51 109.901C165.503 111.596 175.409 104.017 178.738 100.016V161.751C154.689 148.597 151.232 121.704 152.51 109.901Z" fill="white"/>
<path d="M204.962 110.011C191.97 111.705 182.064 104.126 178.735 100.125V161.86C202.784 148.706 206.24 121.813 204.962 110.011Z" fill="white"/>
</g>
<g filter="url(#filter2_d_5013_6344)">
<path d="M96.1953 303.338C96.1953 285.103 110.978 270.32 129.213 270.32H506.162C524.397 270.32 539.179 285.103 539.179 303.338V377.627C539.179 395.862 524.397 410.644 506.162 410.644H129.213C110.978 410.644 96.1953 395.862 96.1953 377.627V303.338Z" fill="#0A0A0A"/>
</g>
<path d="M153.868 343.809V346.292H127.525V343.809H153.868ZM128.911 339.875C134.151 339.311 138.294 336.957 138.633 334.136H129.943V331.621H151.514V334.136H142.728C143.083 336.941 147.161 339.311 152.514 339.875L151.417 342.293C146.404 341.713 142.26 339.601 140.696 336.554C139.1 339.601 134.989 341.713 129.975 342.293L128.911 339.875ZM130.653 353.804C130.653 350.451 134.409 348.516 140.68 348.516C146.903 348.516 150.628 350.451 150.644 353.804C150.628 357.158 146.903 359.044 140.68 359.028C134.409 359.044 130.653 357.158 130.653 353.804ZM133.748 353.804C133.732 355.626 136.263 356.626 140.68 356.61C145.033 356.626 147.581 355.626 147.581 353.804C147.581 351.934 145.033 350.935 140.68 350.902C136.263 350.935 133.732 351.934 133.748 353.804ZM166.024 334.813C166.008 338.601 168.684 342.132 172.988 343.551L171.344 345.969C168.184 344.857 165.814 342.6 164.557 339.746C163.299 342.987 160.849 345.534 157.479 346.775L155.835 344.325C160.349 342.729 162.961 338.876 162.993 334.555V331.717H166.024V334.813ZM159.736 353.675C159.736 350.29 163.428 348.307 169.442 348.323C175.374 348.307 179.018 350.29 179.018 353.675C179.018 357.093 175.374 359.044 169.442 359.028C163.428 359.044 159.736 357.093 159.736 353.675ZM162.799 353.675C162.783 355.578 165.266 356.61 169.442 356.642C173.585 356.61 176.035 355.578 176.019 353.675C176.035 351.837 173.585 350.741 169.442 350.741C165.266 350.741 162.783 351.837 162.799 353.675ZM175.697 347.646V330.202H178.76V337.457H182.952V340.036H178.76V347.646H175.697Z" fill="white"/>
<path d="M413.182 346.595V357.842H408.746V350.227H391.351V346.595H413.182ZM386.181 341.844C391.298 340.342 393.656 336.709 393.656 333.007V332.867H387.264V329.374H393.656V325.881H398.162V329.374H404.519V332.867H398.092V333.007C398.11 336.447 400.433 339.871 405.567 341.25L403.576 344.778C399.926 343.765 397.394 341.669 395.944 338.997C394.547 341.914 392.014 344.202 388.277 345.267L386.181 341.844ZM403.332 338.281V334.648H408.746V326.021H413.182V345.302H408.746V338.281H403.332ZM446.296 345.058V348.69H433.966V357.842H429.565V348.69H417.304V345.058H446.296ZM418.771 339.853C425.373 339.12 428.953 336.011 429.495 333.181H419.924V329.688H429.565V326.055H433.966V329.688H443.642V333.181H434.106C434.595 335.976 438.175 339.12 444.759 339.853L443.153 343.346C437.756 342.735 433.861 340.517 431.8 337.635C429.722 340.552 425.81 342.735 420.378 343.346L418.771 339.853ZM473.717 327.208V329.094C473.699 330.998 473.699 333.531 473.158 336.674L468.757 336.325C469.124 334.055 469.228 332.256 469.263 330.701H451.536V327.208H473.717ZM448.287 341.425V337.967H459.116V333.286H463.517V337.967H477.14V341.425H448.287ZM451.501 346.944V343.416H473.717V351.904H455.972V354.14H474.59V357.563H451.536V348.9H469.316V346.944H451.501ZM497.295 327.243V330.806H490.973C491.077 333.985 493.383 337.321 498.238 338.7L496.177 342.228C492.614 341.198 490.152 339.085 488.737 336.447C487.287 339.381 484.703 341.792 481.017 342.892L478.852 339.434C483.829 337.827 486.327 334.177 486.501 330.806H480.074V327.243H497.295ZM484.755 346.944V343.416H505.923V352.009H489.261V354.035H506.866V357.493H484.79V348.76H501.487V346.944H484.755ZM496.492 336.081V332.553H501.487V326.021H505.923V342.193H501.487V336.081H496.492Z" fill="white"/>
<g filter="url(#filter3_d_5013_6344)">
<path d="M96.1953 471.182C96.1953 452.946 110.978 438.164 129.213 438.164H506.162C524.397 438.164 539.179 452.946 539.179 471.182V545.471C539.179 563.706 524.397 578.488 506.162 578.488H129.213C110.978 578.488 96.1953 563.706 96.1953 545.471V471.182Z" fill="#0A0A0A"/>
</g>
<path d="M150.934 511.362V513.813H142.196V520.874H153.965V523.389H127.525V520.874H139.165V513.813H130.814V500.271H150.676V502.753H133.877V511.362H150.934ZM166.185 504.301C166.185 507.703 168.797 510.927 173.214 512.168L171.763 514.619C168.458 513.619 165.992 511.507 164.718 508.831C163.444 511.765 160.929 514.055 157.544 515.135L156.028 512.749C160.446 511.411 163.154 507.993 163.154 504.301V503.882H156.867V501.431H163.154V497.949H166.217V501.431H172.473V503.882H166.185V504.301ZM159.672 519.584V517.102H178.76V526.968H175.697V519.584H159.672ZM175.697 515.715V498.046H178.76V505.559H182.952V508.17H178.76V515.715H175.697ZM217.517 498.046V526.936H214.583V498.046H217.517ZM192.98 510.524C192.98 504.269 195.43 500.351 199.203 500.367C201.669 500.351 203.572 501.996 204.603 504.849H208.811V498.594H211.713V525.517H208.811V516.199H204.619C203.572 519.069 201.669 520.729 199.203 520.713C195.43 520.729 192.98 516.795 192.98 510.524ZM195.785 510.524C195.769 515.119 197.058 517.827 199.203 517.811C201.331 517.827 202.685 515.119 202.685 510.524C202.685 505.913 201.331 503.221 199.203 503.237C197.058 503.221 195.769 505.913 195.785 510.524ZM205.248 507.332C205.409 508.315 205.49 509.379 205.49 510.524C205.49 511.653 205.409 512.717 205.248 513.684H208.811V507.332H205.248ZM245.279 498.046V515.232H242.215V507.912H236.831V505.397H242.215V498.046H245.279ZM221.193 512.62C225.675 511.056 228.431 507.155 228.415 503.172V502.528H222.16V500.045H237.734V502.528H231.543V503.14C231.527 506.8 234.138 510.363 238.507 511.846L236.928 514.264C233.687 513.152 231.301 510.83 230.044 507.977C228.786 511.201 226.255 513.797 222.805 515.07L221.193 512.62ZM225.836 521.487C225.82 518.053 229.528 516.054 235.606 516.038C241.651 516.054 245.359 518.053 245.375 521.487C245.359 524.921 241.651 526.92 235.606 526.936C229.528 526.92 225.82 524.921 225.836 521.487ZM228.867 521.487C228.851 523.438 231.366 524.55 235.606 524.518C239.813 524.55 242.328 523.438 242.344 521.487C242.328 519.52 239.813 518.408 235.606 518.424C231.366 518.408 228.851 519.52 228.867 521.487ZM268.397 505.397C268.365 510.669 271.557 515.989 276.039 517.972L274.201 520.391C270.88 518.811 268.252 515.57 266.898 511.62C265.56 515.86 262.9 519.343 259.434 521.035L257.563 518.456C262.11 516.441 265.302 510.911 265.302 505.397V500.464H268.397V505.397ZM278.651 527.001V498.046H281.714V527.001H278.651ZM309.024 498.046V506.59H313.216V509.138H309.024V519.036H305.929V498.046H309.024ZM286.293 513.426C293.064 511.395 297.255 507.541 297.852 502.786H287.518V500.238H301.189C301.189 507.816 296.03 513.313 287.582 515.876L286.293 513.426ZM290.678 526.323V516.876H293.773V523.841H310.217V526.323H290.678Z" fill="white"/>
<path d="M399.857 491.769H425.512C432.347 491.769 434.922 494.444 434.922 499.941V502.318C434.922 505.042 433.931 507.172 432 508.608C434.179 509.995 435.17 512.174 435.17 514.997V517.869C435.17 523.119 432.941 526.438 426.403 526.438H399.857C399.114 526.438 398.768 526.091 398.768 525.348V520.94C398.768 520.197 399.114 519.851 399.857 519.851H424.175C426.75 519.851 427.84 518.91 427.84 516.78V514.947C427.84 512.917 426.8 511.778 423.531 511.778H400.155C399.412 511.778 399.015 511.431 399.015 510.688V507.172C399.015 506.429 399.412 506.082 400.155 506.082H423.531C426.8 506.082 427.79 505.042 427.79 503.111V501.377C427.79 499.297 426.701 498.356 424.076 498.356H399.857C399.114 498.356 398.768 498.009 398.768 497.267V492.859C398.768 492.116 399.114 491.769 399.857 491.769ZM468.036 514.177V517.67H456.055V522.805H451.654V517.67H438.939V514.177H468.036ZM442.362 529.092V520.29H446.763V525.529H464.823V529.092H442.362ZM442.677 511.941V498.877H447.078V502.196H459.828V498.877H464.264V511.941H442.677ZM447.078 508.413H459.828V505.514H447.078V508.413ZM505.621 501.148V504.746H479.528V501.148H490.392V497.829H494.828V501.148H505.621ZM478.131 522.036V518.403H507.228V522.036H494.828V529.686H490.392V522.036H478.131ZM481.659 511.417C481.642 507.889 485.746 505.968 492.627 505.968C499.456 505.968 503.578 507.889 503.596 511.417C503.578 514.928 499.456 516.849 492.627 516.867C485.746 516.849 481.642 514.928 481.659 511.417ZM486.27 511.417C486.27 512.867 488.366 513.548 492.627 513.548C496.836 513.548 498.95 512.867 498.95 511.417C498.95 509.968 496.836 509.269 492.627 509.252C488.366 509.269 486.27 509.968 486.27 511.417Z" fill="white"/>
<defs>
<filter id="filter0_d_5013_6344" x="68.6817" y="0.675324" width="500.766" height="654.848" filterUnits="userSpaceOnUse" color-interpolation-filters="sRGB">
<feFlood flood-opacity="0" result="BackgroundImageFix"/>
<feColorMatrix in="SourceAlpha" type="matrix" values="0 0 0 0 0 0 0 0 0 0 0 0 0 0 0 0 0 0 127 0" result="hardAlpha"/>
<feOffset dy="2.75145"/>
<feGaussianBlur stdDeviation="5.50291"/>
<feComposite in2="hardAlpha" operator="out"/>
<feColorMatrix type="matrix" values="0 0 0 0 0 0 0 0 0 0 0 0 0 0 0 0 0 0 0.35 0"/>
<feBlend mode="normal" in2="BackgroundImageFix" result="effect1_dropShadow_5013_6344"/>
<feBlend mode="normal" in="SourceGraphic" in2="effect1_dropShadow_5013_6344" result="shape"/>
</filter>
<filter id="filter1_d_5013_6344" x="98.9512" y="52.9566" width="159.586" height="159.582" filterUnits="userSpaceOnUse" color-interpolation-filters="sRGB">
<feFlood flood-opacity="0" result="BackgroundImageFix"/>
<feColorMatrix in="SourceAlpha" type="matrix" values="0 0 0 0 0 0 0 0 0 0 0 0 0 0 0 0 0 0 127 0" result="hardAlpha"/>
<feOffset dy="2.75145"/>
<feGaussianBlur stdDeviation="5.50291"/>
<feComposite in2="hardAlpha" operator="out"/>
<feColorMatrix type="matrix" values="0 0 0 0 0 0 0 0 0 0 0 0 0 0 0 0 0 0 0.35 0"/>
<feBlend mode="normal" in2="BackgroundImageFix" result="effect1_dropShadow_5013_6344"/>
<feBlend mode="normal" in="SourceGraphic" in2="effect1_dropShadow_5013_6344" result="shape"/>
</filter>
<filter id="filter2_d_5013_6344" x="85.1895" y="262.066" width="464.996" height="162.332" filterUnits="userSpaceOnUse" color-interpolation-filters="sRGB">
<feFlood flood-opacity="0" result="BackgroundImageFix"/>
<feColorMatrix in="SourceAlpha" type="matrix" values="0 0 0 0 0 0 0 0 0 0 0 0 0 0 0 0 0 0 127 0" result="hardAlpha"/>
<feOffset dy="2.75145"/>
<feGaussianBlur stdDeviation="5.50291"/>
<feComposite in2="hardAlpha" operator="out"/>
<feColorMatrix type="matrix" values="0 0 0 0 0 0 0 0 0 0 0 0 0 0 0 0 0 0 0.35 0"/>
<feBlend mode="normal" in2="BackgroundImageFix" result="effect1_dropShadow_5013_6344"/>
<feBlend mode="normal" in="SourceGraphic" in2="effect1_dropShadow_5013_6344" result="shape"/>
</filter>
<filter id="filter3_d_5013_6344" x="0.169548" y="353.144" width="635.036" height="332.372" filterUnits="userSpaceOnUse" color-interpolation-filters="sRGB">
<feFlood flood-opacity="0" result="BackgroundImageFix"/>
<feColorMatrix in="SourceAlpha" type="matrix" values="0 0 0 0 0 0 0 0 0 0 0 0 0 0 0 0 0 0 127 0" result="hardAlpha"/>
<feOffset dy="11.0058"/>
<feGaussianBlur stdDeviation="48.0129"/>
<feComposite in2="hardAlpha" operator="out"/>
<feColorMatrix type="matrix" values="0 0 0 0 0 0 0 0 0 0 0 0 0 0 0 0 0 0 0.25 0"/>
<feBlend mode="normal" in2="BackgroundImageFix" result="effect1_dropShadow_5013_6344"/>
<feBlend mode="normal" in="SourceGraphic" in2="effect1_dropShadow_5013_6344" result="shape"/>
</filter>
</defs>
</svg>
