<svg width="614" height="686" viewBox="0 0 614 686" fill="none" xmlns="http://www.w3.org/2000/svg">
<g filter="url(#filter0_d_5013_6362)">
<path d="M68.5625 50.2015C68.5625 27.4077 87.0405 8.92969 109.834 8.92969H506.044C528.838 8.92969 547.316 27.4077 547.316 50.2015V600.492C547.316 623.286 528.838 641.764 506.044 641.764H109.834C87.0405 641.764 68.5625 623.286 68.5625 600.492V50.2015Z" fill="#1E1E1E"/>
</g>
<path d="M308.155 138.882C308.155 151.779 299.718 160.592 285.101 164.354L282.467 159.034C293.484 156.213 299.718 150.785 300.793 144.202H285.316V138.882H308.155ZM290.528 184.345V165.375H323.148V184.345H290.528ZM297.353 178.971H316.431V170.749H297.353V178.971ZM316.27 163.387V136.087H323.148V163.387H316.27ZM368.343 136.033V155.165H375.544V160.807H368.343V184.936H361.572V136.033H368.343ZM329.489 148.823V143.342H340.56V136.786H347.438V143.342H358.24V148.823H329.489ZM331.478 163.226C331.451 156.401 336.771 151.537 343.999 151.564C351.12 151.537 356.467 156.401 356.467 163.226C356.467 170.05 351.12 174.86 343.999 174.887C336.771 174.86 331.451 170.05 331.478 163.226ZM338.034 163.226C338.034 167.014 340.533 169.271 343.999 169.244C347.411 169.271 349.91 167.014 349.91 163.226C349.91 159.464 347.411 157.153 343.999 157.099C340.533 157.153 338.034 159.464 338.034 163.226ZM421.921 161.022V166.504H377.317V161.022H421.921ZM381.778 147.534C381.778 141.3 388.845 137.484 399.619 137.538C410.313 137.484 417.38 141.3 417.407 147.534C417.38 153.794 410.313 157.637 399.619 157.637C388.845 157.637 381.778 153.794 381.778 147.534ZM382.691 184.076V169.782H389.57V178.595H416.87V184.076H382.691ZM388.925 147.534C388.871 150.57 392.821 152.101 399.619 152.101C406.364 152.101 410.313 150.57 410.313 147.534C410.313 144.578 406.364 142.966 399.619 142.912C392.821 142.966 388.871 144.578 388.925 147.534Z" fill="white"/>
<path d="M305.673 85.2146V106.495H302.061V85.2146H305.673ZM281.425 99.6275C286.149 97.967 288.567 93.8559 288.551 89.6643V86.8268H292.259V89.6643C292.243 93.727 294.629 97.5639 299.256 99.1116L297.418 101.949C294.097 100.788 291.727 98.4668 290.437 95.4842C289.148 98.6763 286.729 101.224 283.295 102.465L281.425 99.6275ZM286.391 113.75V104.464H290.002V110.848H306.479V113.75H286.391ZM333.724 87.8586V90.6638C333.692 94.2912 333.692 98.3378 332.564 104.432L328.952 104.045C330.097 98.37 330.097 94.2267 330.113 90.7283H312.702V87.8586H333.724ZM309.929 110.558V107.624H319.731V97.4995H323.278V107.624H336.497V110.558H309.929ZM348.911 93.469C348.895 97.967 351.604 103.094 356.198 105.238L354.199 108.075C350.91 106.528 348.476 103.4 347.17 99.7565C345.848 103.755 343.301 107.173 339.947 108.785L337.852 105.98C342.495 103.771 345.316 98.3217 345.332 93.469V91.0185H338.98V88.0521H355.005V91.0185H348.911V93.469ZM357.714 114.331V85.1824H361.293V96.5321H365.775V99.5308H361.293V114.331H357.714Z" fill="white"/>
<path d="M466.186 153.113V172.11H463.289V153.113H466.186ZM440.719 169.552V155.107H443.69V167.031C449.22 166.994 454.167 166.618 459.49 165.489L459.941 167.972C454.28 169.119 449.201 169.514 443.427 169.552H440.719ZM444.48 186.103V173.652H466.186V186.103H444.48ZM447.377 183.696H463.289V176.022H447.377V183.696Z" fill="white"/>
<g filter="url(#filter1_d_5013_6362)">
<circle cx="167.614" cy="129.989" r="68.7864" fill="black"/>
<path d="M141.381 109.894C154.374 111.588 164.28 104.009 167.609 100.008V161.743C143.56 148.589 140.104 121.696 141.381 109.894Z" fill="white"/>
<path d="M193.834 110.003C180.841 111.698 170.935 104.119 167.606 100.117V161.852C191.655 148.698 195.111 121.805 193.834 110.003Z" fill="white"/>
</g>
<g filter="url(#filter2_d_5013_6362)">
<path d="M96.0703 303.338C96.0703 285.103 110.853 270.32 129.088 270.32H484.025C502.26 270.32 517.043 285.103 517.043 303.338V377.627C517.043 395.862 502.26 410.644 484.025 410.644H129.088C110.853 410.644 96.0703 395.862 96.0703 377.627V303.338Z" fill="#0A0A0A"/>
</g>
<path d="M142.739 343.809V346.292H116.396V343.809H142.739ZM117.783 339.875C123.022 339.311 127.165 336.957 127.504 334.136H118.814V331.621H140.385V334.136H131.599C131.954 336.941 136.032 339.311 141.385 339.875L140.289 342.293C135.275 341.713 131.131 339.601 129.568 336.554C127.972 339.601 123.86 341.713 118.847 342.293L117.783 339.875ZM119.524 353.804C119.524 350.451 123.28 348.516 129.551 348.516C135.774 348.516 139.499 350.451 139.515 353.804C139.499 357.158 135.774 359.044 129.551 359.028C123.28 359.044 119.524 357.158 119.524 353.804ZM122.619 353.804C122.603 355.626 125.134 356.626 129.551 356.61C133.904 356.626 136.452 355.626 136.452 353.804C136.452 351.934 133.904 350.935 129.551 350.902C125.134 350.935 122.603 351.934 122.619 353.804ZM154.895 334.813C154.879 338.601 157.555 342.132 161.86 343.551L160.215 345.969C157.055 344.857 154.685 342.6 153.428 339.746C152.17 342.987 149.72 345.534 146.35 346.775L144.706 344.325C149.22 342.729 151.832 338.876 151.864 334.555V331.717H154.895V334.813ZM148.607 353.675C148.607 350.29 152.299 348.307 158.313 348.323C164.246 348.307 167.889 350.29 167.889 353.675C167.889 357.093 164.246 359.044 158.313 359.028C152.299 359.044 148.607 357.093 148.607 353.675ZM151.671 353.675C151.654 355.578 154.137 356.61 158.313 356.642C162.456 356.61 164.907 355.578 164.89 353.675C164.907 351.837 162.456 350.741 158.313 350.741C154.137 350.741 151.654 351.837 151.671 353.675ZM164.568 347.646V330.202H167.631V337.457H171.823V340.036H167.631V347.646H164.568Z" fill="white"/>
<path d="M421.746 328.64V332.273H411.196V337.513H421.291V341.006H411.196V347.014C415.737 346.961 419.458 346.769 423.702 346.106L424.121 349.703C419.265 350.437 414.934 350.577 409.38 350.577H406.69V328.64H421.746ZM426.042 357.807V326.021H430.513V338.072H435.194V341.809H430.513V357.807H426.042ZM461.566 326.021V333.81H465.863V337.408H461.566V345.128H457.095V326.021H461.566ZM437.29 343.451V328.012H441.726V332.238H448.223V328.012H452.694V343.451H437.29ZM440.154 350.053V346.525H461.566V357.807H457.095V350.053H440.154ZM441.726 339.923H448.223V335.696H441.726V339.923ZM478.857 331.016C478.84 334.875 481.093 338.578 486.123 340.132L483.747 343.591C480.376 342.473 478.019 340.307 476.656 337.53C475.277 340.726 472.814 343.241 469.181 344.464L466.771 340.971C472.08 339.207 474.351 334.98 474.386 330.596V327.697H478.857V331.016ZM471.172 351.66C471.155 347.8 475.364 345.512 482.071 345.512C488.655 345.512 492.777 347.8 492.794 351.66C492.777 355.554 488.655 357.825 482.071 357.807C475.364 357.825 471.155 355.554 471.172 351.66ZM475.643 351.66C475.608 353.459 477.896 354.314 482.071 354.314C486.192 354.314 488.393 353.459 488.393 351.66C488.393 349.931 486.192 349.005 482.071 349.005C477.896 349.005 475.608 349.931 475.643 351.66ZM488.009 344.883V326.021H492.48V333.461H496.776V337.163H492.48V344.883H488.009Z" fill="white"/>
<g filter="url(#filter3_d_5013_6362)">
<path d="M96.0703 471.166C96.0703 452.931 110.853 438.148 129.088 438.148H484.025C502.26 438.148 517.043 452.931 517.043 471.166V545.455C517.043 563.69 502.26 578.473 484.025 578.473H129.088C110.853 578.473 96.0703 563.69 96.0703 545.455V471.166Z" fill="#0A0A0A"/>
</g>
<path d="M139.805 511.347V513.797H131.067V520.859H142.836V523.374H116.396V520.859H128.036V513.797H119.685V500.255H139.547V502.738H122.748V511.347H139.805ZM155.056 504.285C155.056 507.687 157.668 510.911 162.085 512.153L160.634 514.603C157.329 513.604 154.863 511.492 153.589 508.816C152.315 511.75 149.8 514.039 146.415 515.119L144.899 512.733C149.317 511.395 152.025 507.977 152.025 504.285V503.866H145.738V501.416H152.025V497.933H155.088V501.416H161.344V503.866H155.056V504.285ZM148.543 519.569V517.086H167.631V526.953H164.568V519.569H148.543ZM164.568 515.7V498.03H167.631V505.543H171.823V508.155H167.631V515.7H164.568ZM206.388 498.03V526.92H203.454V498.03H206.388ZM181.851 510.508C181.851 504.253 184.301 500.336 188.074 500.352C190.54 500.336 192.443 501.98 193.474 504.834H197.682V498.578H200.584V525.502H197.682V516.183H193.491C192.443 519.053 190.54 520.713 188.074 520.697C184.301 520.713 181.851 516.78 181.851 510.508ZM184.656 510.508C184.64 515.103 185.929 517.812 188.074 517.795C190.202 517.812 191.556 515.103 191.556 510.508C191.556 505.898 190.202 503.205 188.074 503.221C185.929 503.205 184.64 505.898 184.656 510.508ZM194.119 507.316C194.281 508.3 194.361 509.364 194.361 510.508C194.361 511.637 194.281 512.701 194.119 513.668H197.682V507.316H194.119ZM234.15 498.03V515.216H231.087V507.897H225.702V505.382H231.087V498.03H234.15ZM210.064 512.604C214.546 511.04 217.302 507.139 217.286 503.157V502.512H211.031V500.029H226.605V502.512H220.414V503.125C220.398 506.784 223.01 510.347 227.379 511.83L225.799 514.249C222.558 513.136 220.172 510.815 218.915 507.961C217.657 511.186 215.126 513.781 211.676 515.055L210.064 512.604ZM214.707 521.471C214.691 518.037 218.399 516.038 224.477 516.022C230.522 516.038 234.23 518.037 234.246 521.471C234.23 524.905 230.522 526.904 224.477 526.92C218.399 526.904 214.691 524.905 214.707 521.471ZM217.738 521.471C217.722 523.422 220.237 524.534 224.477 524.502C228.684 524.534 231.199 523.422 231.216 521.471C231.199 519.504 228.684 518.392 224.477 518.408C220.237 518.392 217.722 519.504 217.738 521.471ZM257.268 505.382C257.236 510.653 260.428 515.974 264.91 517.957L263.072 520.375C259.751 518.795 257.123 515.555 255.769 511.605C254.431 515.845 251.771 519.327 248.305 521.02L246.435 518.44C250.981 516.425 254.173 510.895 254.173 505.382V500.448H257.268V505.382ZM267.522 526.985V498.03H270.585V526.985H267.522ZM297.895 498.03V506.575H302.087V509.122H297.895V519.021H294.8V498.03H297.895ZM275.164 513.41C281.935 511.379 286.126 507.526 286.723 502.77H276.389V500.223H290.06C290.06 507.8 284.901 513.297 276.453 515.861L275.164 513.41ZM279.549 526.308V516.86H282.644V523.825H299.088V526.308H279.549Z" fill="white"/>
<path d="M368.256 491.754H374.843C378.112 491.754 379.4 493.091 379.4 495.963V525.332C379.4 526.075 379.053 526.422 378.31 526.422H373.209C372.466 526.422 372.119 526.075 372.119 525.332V499.381C372.119 498.687 371.822 498.341 371.079 498.341H368.256C367.514 498.341 367.117 497.994 367.117 497.251V492.843C367.117 492.1 367.514 491.754 368.256 491.754ZM399.452 491.754H410.893C420.897 491.754 424.76 495.319 424.76 504.828V513.347C424.76 522.856 420.897 526.422 410.893 526.422H399.452C389.448 526.422 385.585 522.856 385.585 513.347V504.828C385.585 495.319 389.448 491.754 399.452 491.754ZM392.915 505.126V513.05C392.915 518.3 394.351 519.835 399.452 519.835H410.893C415.994 519.835 417.43 518.3 417.43 513.05V505.126C417.43 499.876 415.994 498.341 410.893 498.341H399.452C394.351 498.341 392.915 499.876 392.915 505.126ZM457.649 514.161V517.654H445.668V522.789H441.267V517.654H428.552V514.161H457.649ZM431.975 529.077V520.274H436.377V525.514H454.436V529.077H431.975ZM432.29 511.926V498.862H436.691V502.18H449.441V498.862H453.877V511.926H432.29ZM436.691 508.398H449.441V505.498H436.691V508.398ZM495.235 501.132V504.73H469.142V501.132H480.005V497.814H484.441V501.132H495.235ZM467.744 522.021V518.388H496.842V522.021H484.441V529.67H480.005V522.021H467.744ZM471.272 511.402C471.255 507.874 475.359 505.953 482.241 505.953C489.07 505.953 493.191 507.874 493.209 511.402C493.191 514.912 489.07 516.833 482.241 516.851C475.359 516.833 471.255 514.912 471.272 511.402ZM475.883 511.402C475.883 512.851 477.979 513.532 482.241 513.532C486.45 513.532 488.563 512.851 488.563 511.402C488.563 509.952 486.45 509.253 482.241 509.236C477.979 509.253 475.883 509.952 475.883 511.402Z" fill="white"/>
<defs>
<filter id="filter0_d_5013_6362" x="57.5567" y="0.675324" width="500.766" height="654.848" filterUnits="userSpaceOnUse" color-interpolation-filters="sRGB">
<feFlood flood-opacity="0" result="BackgroundImageFix"/>
<feColorMatrix in="SourceAlpha" type="matrix" values="0 0 0 0 0 0 0 0 0 0 0 0 0 0 0 0 0 0 127 0" result="hardAlpha"/>
<feOffset dy="2.75145"/>
<feGaussianBlur stdDeviation="5.50291"/>
<feComposite in2="hardAlpha" operator="out"/>
<feColorMatrix type="matrix" values="0 0 0 0 0 0 0 0 0 0 0 0 0 0 0 0 0 0 0.35 0"/>
<feBlend mode="normal" in2="BackgroundImageFix" result="effect1_dropShadow_5013_6362"/>
<feBlend mode="normal" in="SourceGraphic" in2="effect1_dropShadow_5013_6362" result="shape"/>
</filter>
<filter id="filter1_d_5013_6362" x="87.8223" y="52.9488" width="159.586" height="159.582" filterUnits="userSpaceOnUse" color-interpolation-filters="sRGB">
<feFlood flood-opacity="0" result="BackgroundImageFix"/>
<feColorMatrix in="SourceAlpha" type="matrix" values="0 0 0 0 0 0 0 0 0 0 0 0 0 0 0 0 0 0 127 0" result="hardAlpha"/>
<feOffset dy="2.75145"/>
<feGaussianBlur stdDeviation="5.50291"/>
<feComposite in2="hardAlpha" operator="out"/>
<feColorMatrix type="matrix" values="0 0 0 0 0 0 0 0 0 0 0 0 0 0 0 0 0 0 0.35 0"/>
<feBlend mode="normal" in2="BackgroundImageFix" result="effect1_dropShadow_5013_6362"/>
<feBlend mode="normal" in="SourceGraphic" in2="effect1_dropShadow_5013_6362" result="shape"/>
</filter>
<filter id="filter2_d_5013_6362" x="0.044548" y="185.3" width="613.024" height="332.372" filterUnits="userSpaceOnUse" color-interpolation-filters="sRGB">
<feFlood flood-opacity="0" result="BackgroundImageFix"/>
<feColorMatrix in="SourceAlpha" type="matrix" values="0 0 0 0 0 0 0 0 0 0 0 0 0 0 0 0 0 0 127 0" result="hardAlpha"/>
<feOffset dy="11.0058"/>
<feGaussianBlur stdDeviation="48.0129"/>
<feComposite in2="hardAlpha" operator="out"/>
<feColorMatrix type="matrix" values="0 0 0 0 0 0 0 0 0 0 0 0 0 0 0 0 0 0 0.25 0"/>
<feBlend mode="normal" in2="BackgroundImageFix" result="effect1_dropShadow_5013_6362"/>
<feBlend mode="normal" in="SourceGraphic" in2="effect1_dropShadow_5013_6362" result="shape"/>
</filter>
<filter id="filter3_d_5013_6362" x="0.044548" y="353.128" width="613.024" height="332.372" filterUnits="userSpaceOnUse" color-interpolation-filters="sRGB">
<feFlood flood-opacity="0" result="BackgroundImageFix"/>
<feColorMatrix in="SourceAlpha" type="matrix" values="0 0 0 0 0 0 0 0 0 0 0 0 0 0 0 0 0 0 127 0" result="hardAlpha"/>
<feOffset dy="11.0058"/>
<feGaussianBlur stdDeviation="48.0129"/>
<feComposite in2="hardAlpha" operator="out"/>
<feColorMatrix type="matrix" values="0 0 0 0 0 0 0 0 0 0 0 0 0 0 0 0 0 0 0.25 0"/>
<feBlend mode="normal" in2="BackgroundImageFix" result="effect1_dropShadow_5013_6362"/>
<feBlend mode="normal" in="SourceGraphic" in2="effect1_dropShadow_5013_6362" result="shape"/>
</filter>
</defs>
</svg>
