<svg width="636" height="686" viewBox="0 0 636 686" fill="none" xmlns="http://www.w3.org/2000/svg">
<g filter="url(#filter0_d_5013_6380)">
<path d="M80 50.2718C80 27.478 98.478 9 121.272 9H517.481C540.275 9 558.753 27.478 558.753 50.2718V600.563C558.753 623.357 540.275 641.835 517.481 641.835H121.272C98.478 641.835 80 623.357 80 600.563V50.2718Z" fill="#1E1E1E"/>
</g>
<path d="M313.251 162.543V169.906C317.282 169.664 321.312 169.288 325.128 168.723L325.665 173.721C314.81 175.79 303.202 175.898 294.657 175.925L293.851 170.389C297.532 170.389 301.858 170.363 306.426 170.228V162.543H313.251ZM294.819 158.889C302.208 156.928 305.808 152.36 306.265 147.389H296.377V141.854H306.426V136.534H313.251V141.854H323.354V147.389H313.359C313.815 152.118 317.47 156.552 324.859 158.352L321.742 163.672C316.019 162.221 312.069 159.05 309.839 154.993C307.716 159.265 303.82 162.57 298.043 164.048L294.819 158.889ZM327.922 185.114V136.104H334.747V185.114H327.922ZM367.582 140.027V163.618H343.668V140.027H367.582ZM349.364 183.932V167.702H356.296V178.397H383.435V183.932H349.364ZM350.439 158.191H360.757V145.454H350.439V158.191ZM375.266 170.927V136.157H382.145V170.927H375.266ZM401.921 139.543C409.391 139.543 414.792 146.287 414.819 156.955C414.792 167.702 409.391 174.42 401.921 174.42C394.424 174.42 388.997 167.702 389.024 156.955C388.997 146.287 394.424 139.543 401.921 139.543ZM395.634 156.955C395.634 164.236 398.186 168.213 401.921 168.186C405.737 168.213 408.235 164.236 408.262 156.955C408.235 149.7 405.737 145.723 401.921 145.723C398.186 145.723 395.634 149.7 395.634 156.955ZM420.461 185.007V136.104H427.34V154.536H434.541V160.233H427.34V185.007H420.461Z" fill="white"/>
<path d="M317.11 85.285V106.566H313.499V85.285H317.11ZM292.863 99.6978C297.587 98.0373 300.005 93.9262 299.989 89.7346V86.8971H303.697V89.7346C303.681 93.7973 306.067 97.6343 310.694 99.1819L308.856 102.019C305.535 100.859 303.165 98.5371 301.875 95.5545C300.585 98.7467 298.167 101.294 294.733 102.535L292.863 99.6978ZM297.828 113.821V104.534H301.44V110.919H317.916V113.821H297.828ZM345.162 87.9289V90.7341C345.13 94.3615 345.13 98.4081 344.001 104.502L340.39 104.115C341.535 98.4403 341.535 94.297 341.551 90.7986H324.139V87.9289H345.162ZM321.366 110.628V107.694H331.168V97.5698H334.715V107.694H347.935V110.628H321.366ZM360.349 93.5393C360.333 98.0373 363.041 103.164 367.636 105.308L365.637 108.146C362.348 106.598 359.913 103.47 358.608 99.8268C357.286 103.825 354.738 107.243 351.385 108.855L349.289 106.05C353.932 103.841 356.754 98.392 356.77 93.5393V91.0888H350.418V88.1224H366.443V91.0888H360.349V93.5393ZM369.151 114.401V85.2527H372.73V96.6025H377.212V99.6011H372.73V114.401H369.151Z" fill="white"/>
<path d="M477.623 153.183V172.18H474.727V153.183H477.623ZM452.156 169.622V155.177H455.128V167.102C460.658 167.064 465.604 166.688 470.927 165.559L471.379 168.042C465.717 169.189 460.639 169.584 454.865 169.622H452.156ZM455.918 186.174V173.722H477.623V186.174H455.918ZM458.814 183.766H474.727V176.092H458.814V183.766Z" fill="white"/>
<g filter="url(#filter1_d_5013_6380)">
<circle cx="179.056" cy="130.06" r="68.7864" fill="black"/>
<path d="M152.823 109.964C165.815 111.659 175.721 104.079 179.05 100.078V161.813C155.002 148.659 151.545 121.766 152.823 109.964Z" fill="white"/>
<path d="M205.275 110.073C192.282 111.768 182.376 104.189 179.048 100.188V161.923C203.096 148.769 206.553 121.876 205.275 110.073Z" fill="white"/>
</g>
<g filter="url(#filter2_d_5013_6380)">
<path d="M96.5117 303.408C96.5117 285.173 111.294 270.391 129.529 270.391H506.478C524.713 270.391 539.496 285.173 539.496 303.408V377.697C539.496 395.932 524.713 410.715 506.478 410.715H129.529C111.294 410.715 96.5117 395.932 96.5117 377.697V303.408Z" fill="#0A0A0A"/>
</g>
<path d="M154.184 343.879V346.362H127.841V343.879H154.184ZM129.228 339.945C134.467 339.381 138.611 337.027 138.949 334.206H130.26V331.691H151.831V334.206H143.044C143.399 337.011 147.478 339.381 152.83 339.945L151.734 342.364C146.72 341.783 142.577 339.671 141.013 336.624C139.417 339.671 135.306 341.783 130.292 342.364L129.228 339.945ZM130.969 353.875C130.969 350.521 134.725 348.587 140.997 348.587C147.22 348.587 150.944 350.521 150.96 353.875C150.944 357.228 147.22 359.114 140.997 359.098C134.725 359.114 130.969 357.228 130.969 353.875ZM134.064 353.875C134.048 355.696 136.579 356.696 140.997 356.68C145.35 356.696 147.897 355.696 147.897 353.875C147.897 352.005 145.35 351.005 140.997 350.973C136.579 351.005 134.048 352.005 134.064 353.875ZM166.34 334.883C166.324 338.672 169 342.202 173.305 343.621L171.66 346.039C168.501 344.927 166.131 342.67 164.873 339.816C163.616 343.057 161.165 345.604 157.796 346.846L156.151 344.395C160.665 342.799 163.277 338.946 163.309 334.625V331.788H166.34V334.883ZM160.053 353.746C160.053 350.36 163.745 348.377 169.758 348.393C175.691 348.377 179.334 350.36 179.334 353.746C179.334 357.163 175.691 359.114 169.758 359.098C163.745 359.114 160.053 357.163 160.053 353.746ZM163.116 353.746C163.1 355.648 165.583 356.68 169.758 356.712C173.901 356.68 176.352 355.648 176.336 353.746C176.352 351.908 173.901 350.811 169.758 350.811C165.583 350.811 163.1 351.908 163.116 353.746ZM176.013 347.716V330.272H179.076V337.527H183.268V340.107H179.076V347.716H176.013Z" fill="white"/>
<path d="M370.492 326.091V332.413H374.789V336.116H370.492V341.984H366.021V326.091H370.492ZM345.098 339.19C352.608 337.758 356.241 334.527 356.799 330.841H346.705V327.244H361.795C361.795 335.749 356.363 340.884 346.739 342.858L345.098 339.19ZM349.394 346.735V343.207H370.492V351.974H353.83V354.035H371.4V357.563H349.464V348.656H366.056V346.735H349.394ZM402.803 326.091V357.948H398.297V326.091H402.803ZM377.758 350.507V328.606H382.229V336.36H389.075V328.606H393.477V350.507H377.758ZM382.229 346.909H389.075V339.819H382.229V346.909ZM411.186 328.955V336.326H413.422V328.955H417.055V350.472H407.588V328.955H411.186ZM411.186 346.875H413.422V339.784H411.186V346.875ZM418.522 350.472V328.955H422.12V336.326H424.425V328.955H427.988V333.636H430.503V326.091H434.764V357.878H430.503V345.407H427.988V350.472H418.522ZM422.12 346.875H424.425V339.784H422.12V346.875ZM427.988 341.81H430.503V337.269H427.988V341.81ZM471.756 327.278V329.165C471.738 331.068 471.738 333.601 471.197 336.745L466.796 336.395C467.163 334.125 467.267 332.326 467.302 330.772H449.575V327.278H471.756ZM446.326 341.495V338.037H457.155V333.356H461.556V338.037H475.179V341.495H446.326ZM449.54 347.014V343.486H471.756V351.974H454.011V354.21H472.629V357.633H449.575V348.97H467.355V347.014H449.54ZM495.334 327.313V330.876H489.012C489.116 334.055 491.422 337.391 496.277 338.771L494.216 342.299C490.653 341.268 488.191 339.155 486.776 336.518C485.326 339.452 482.742 341.862 479.056 342.962L476.891 339.504C481.868 337.897 484.366 334.247 484.541 330.876H478.113V327.313H495.334ZM482.794 347.014V343.486H503.962V352.079H487.3V354.105H504.905V357.563H482.829V348.831H499.526V347.014H482.794ZM494.531 336.151V332.623H499.526V326.091H503.962V342.264H499.526V336.151H494.531Z" fill="white"/>
<g filter="url(#filter3_d_5013_6380)">
<path d="M96.5117 471.236C96.5117 453.001 111.294 438.219 129.529 438.219H506.478C524.713 438.219 539.496 453.001 539.496 471.236V545.525C539.496 563.761 524.713 578.543 506.478 578.543H129.529C111.294 578.543 96.5117 563.761 96.5117 545.525V471.236Z" fill="#0A0A0A"/>
</g>
<path d="M151.25 511.417V513.868H142.512V520.929H154.281V523.444H127.841V520.929H139.481V513.868H131.13V500.325H150.992V502.808H134.193V511.417H151.25ZM166.501 504.356C166.501 507.757 169.113 510.982 173.531 512.223L172.08 514.674C168.775 513.674 166.308 511.562 165.034 508.886C163.761 511.82 161.246 514.109 157.86 515.19L156.345 512.804C160.762 511.465 163.471 508.048 163.471 504.356V503.937H157.183V501.486H163.471V498.004H166.534V501.486H172.789V503.937H166.501V504.356ZM159.988 519.639V517.156H179.076V527.023H176.013V519.639H159.988ZM176.013 515.77V498.1H179.076V505.613H183.268V508.225H179.076V515.77H176.013ZM217.833 498.1V526.991H214.899V498.1H217.833ZM193.296 510.579C193.296 504.323 195.746 500.406 199.519 500.422C201.986 500.406 203.888 502.05 204.92 504.904H209.128V498.649H212.029V525.572H209.128V516.254H204.936C203.888 519.123 201.986 520.784 199.519 520.768C195.746 520.784 193.296 516.85 193.296 510.579ZM196.101 510.579C196.085 515.173 197.375 517.882 199.519 517.866C201.647 517.882 203.001 515.173 203.001 510.579C203.001 505.968 201.647 503.276 199.519 503.292C197.375 503.276 196.085 505.968 196.101 510.579ZM205.565 507.387C205.726 508.37 205.806 509.434 205.806 510.579C205.806 511.707 205.726 512.771 205.565 513.739H209.128V507.387H205.565ZM245.595 498.1V515.286H242.532V507.967H237.147V505.452H242.532V498.1H245.595ZM221.509 512.675C225.991 511.111 228.748 507.209 228.732 503.227V502.582H222.476V500.1H238.05V502.582H231.859V503.195C231.843 506.855 234.455 510.417 238.824 511.901L237.244 514.319C234.003 513.207 231.617 510.885 230.36 508.031C229.102 511.256 226.571 513.851 223.121 515.125L221.509 512.675ZM226.152 521.542C226.136 518.108 229.844 516.108 235.922 516.092C241.968 516.108 245.676 518.108 245.692 521.542C245.676 524.975 241.968 526.975 235.922 526.991C229.844 526.975 226.136 524.975 226.152 521.542ZM229.183 521.542C229.167 523.492 231.682 524.605 235.922 524.572C240.13 524.605 242.645 523.492 242.661 521.542C242.645 519.575 240.13 518.462 235.922 518.478C231.682 518.462 229.167 519.575 229.183 521.542ZM268.714 505.452C268.681 510.724 271.874 516.044 276.355 518.027L274.518 520.445C271.196 518.865 268.569 515.625 267.214 511.675C265.876 515.915 263.216 519.397 259.75 521.09L257.88 518.511C262.426 516.495 265.618 510.966 265.618 505.452V500.519H268.714V505.452ZM278.967 527.055V498.1H282.03V527.055H278.967ZM309.341 498.1V506.645H313.532V509.192H309.341V519.091H306.245V498.1H309.341ZM286.609 513.481C293.38 511.449 297.572 507.596 298.168 502.84H287.834V500.293H301.505C301.505 507.87 296.346 513.368 287.899 515.931L286.609 513.481ZM290.994 526.378V516.931H294.089V523.895H310.534V526.378H290.994Z" fill="white"/>
<path d="M354.989 491.824H381.237C387.23 491.824 390.004 495.093 390.004 499.897V503.363C390.004 508.762 387.032 511.832 381.336 511.832H362.516C360.734 511.832 359.941 512.773 359.941 514.655V518.865C359.941 519.559 360.238 519.905 360.932 519.905H388.815C389.558 519.905 389.954 520.252 389.954 520.995V525.403C389.954 526.146 389.558 526.492 388.815 526.492H357.217C353.899 526.492 352.611 525.155 352.611 522.282V514.655C352.611 509.208 355.583 506.137 361.278 506.137H380.098C381.881 506.137 382.674 505.196 382.674 503.363V501.234C382.674 499.5 381.931 498.411 380.049 498.411H354.989C354.246 498.411 353.899 498.064 353.899 497.321V492.913C353.899 492.171 354.246 491.824 354.989 491.824ZM409.382 491.824H420.823C430.827 491.824 434.69 495.39 434.69 504.899V513.417C434.69 522.926 430.827 526.492 420.823 526.492H409.382C399.378 526.492 395.515 522.926 395.515 513.417V504.899C395.515 495.39 399.378 491.824 409.382 491.824ZM402.845 505.196V513.12C402.845 518.37 404.281 519.905 409.382 519.905H420.823C425.924 519.905 427.36 518.37 427.36 513.12V505.196C427.36 499.946 425.924 498.411 420.823 498.411H409.382C404.281 498.411 402.845 499.946 402.845 505.196ZM467.579 514.232V517.725H455.598V522.859H451.197V517.725H438.482V514.232H467.579ZM441.905 529.147V520.344H446.306V525.584H464.366V529.147H441.905ZM442.22 511.996V498.932H446.621V502.25H459.37V498.932H463.807V511.996H442.22ZM446.621 508.468H459.37V505.569H446.621V508.468ZM505.164 501.202V504.8H479.071V501.202H489.935V497.884H494.371V501.202H505.164ZM477.674 522.091V518.458H506.771V522.091H494.371V529.741H489.935V522.091H477.674ZM481.202 511.472C481.185 507.944 485.289 506.023 492.17 506.023C498.999 506.023 503.121 507.944 503.138 511.472C503.121 514.983 498.999 516.904 492.17 516.921C485.289 516.904 481.185 514.983 481.202 511.472ZM485.813 511.472C485.813 512.922 487.909 513.603 492.17 513.603C496.379 513.603 498.493 512.922 498.493 511.472C498.493 510.022 496.379 509.324 492.17 509.306C487.909 509.324 485.813 510.022 485.813 511.472Z" fill="white"/>
<defs>
<filter id="filter0_d_5013_6380" x="68.9942" y="0.745637" width="500.766" height="654.848" filterUnits="userSpaceOnUse" color-interpolation-filters="sRGB">
<feFlood flood-opacity="0" result="BackgroundImageFix"/>
<feColorMatrix in="SourceAlpha" type="matrix" values="0 0 0 0 0 0 0 0 0 0 0 0 0 0 0 0 0 0 127 0" result="hardAlpha"/>
<feOffset dy="2.75145"/>
<feGaussianBlur stdDeviation="5.50291"/>
<feComposite in2="hardAlpha" operator="out"/>
<feColorMatrix type="matrix" values="0 0 0 0 0 0 0 0 0 0 0 0 0 0 0 0 0 0 0.35 0"/>
<feBlend mode="normal" in2="BackgroundImageFix" result="effect1_dropShadow_5013_6380"/>
<feBlend mode="normal" in="SourceGraphic" in2="effect1_dropShadow_5013_6380" result="shape"/>
</filter>
<filter id="filter1_d_5013_6380" x="99.2637" y="53.0191" width="159.586" height="159.582" filterUnits="userSpaceOnUse" color-interpolation-filters="sRGB">
<feFlood flood-opacity="0" result="BackgroundImageFix"/>
<feColorMatrix in="SourceAlpha" type="matrix" values="0 0 0 0 0 0 0 0 0 0 0 0 0 0 0 0 0 0 127 0" result="hardAlpha"/>
<feOffset dy="2.75145"/>
<feGaussianBlur stdDeviation="5.50291"/>
<feComposite in2="hardAlpha" operator="out"/>
<feColorMatrix type="matrix" values="0 0 0 0 0 0 0 0 0 0 0 0 0 0 0 0 0 0 0.35 0"/>
<feBlend mode="normal" in2="BackgroundImageFix" result="effect1_dropShadow_5013_6380"/>
<feBlend mode="normal" in="SourceGraphic" in2="effect1_dropShadow_5013_6380" result="shape"/>
</filter>
<filter id="filter2_d_5013_6380" x="0.485954" y="185.371" width="635.036" height="332.372" filterUnits="userSpaceOnUse" color-interpolation-filters="sRGB">
<feFlood flood-opacity="0" result="BackgroundImageFix"/>
<feColorMatrix in="SourceAlpha" type="matrix" values="0 0 0 0 0 0 0 0 0 0 0 0 0 0 0 0 0 0 127 0" result="hardAlpha"/>
<feOffset dy="11.0058"/>
<feGaussianBlur stdDeviation="48.0129"/>
<feComposite in2="hardAlpha" operator="out"/>
<feColorMatrix type="matrix" values="0 0 0 0 0 0 0 0 0 0 0 0 0 0 0 0 0 0 0.25 0"/>
<feBlend mode="normal" in2="BackgroundImageFix" result="effect1_dropShadow_5013_6380"/>
<feBlend mode="normal" in="SourceGraphic" in2="effect1_dropShadow_5013_6380" result="shape"/>
</filter>
<filter id="filter3_d_5013_6380" x="0.485954" y="353.199" width="635.036" height="332.372" filterUnits="userSpaceOnUse" color-interpolation-filters="sRGB">
<feFlood flood-opacity="0" result="BackgroundImageFix"/>
<feColorMatrix in="SourceAlpha" type="matrix" values="0 0 0 0 0 0 0 0 0 0 0 0 0 0 0 0 0 0 127 0" result="hardAlpha"/>
<feOffset dy="11.0058"/>
<feGaussianBlur stdDeviation="48.0129"/>
<feComposite in2="hardAlpha" operator="out"/>
<feColorMatrix type="matrix" values="0 0 0 0 0 0 0 0 0 0 0 0 0 0 0 0 0 0 0.25 0"/>
<feBlend mode="normal" in2="BackgroundImageFix" result="effect1_dropShadow_5013_6380"/>
<feBlend mode="normal" in="SourceGraphic" in2="effect1_dropShadow_5013_6380" result="shape"/>
</filter>
</defs>
</svg>
