<svg width="614" height="686" viewBox="0 0 614 686" fill="none" xmlns="http://www.w3.org/2000/svg">
<g filter="url(#filter0_d_5013_6326)">
<path d="M69 50.2015C69 27.4077 87.478 8.92969 110.272 8.92969H506.481C529.275 8.92969 547.753 27.4077 547.753 50.2015V600.492C547.753 623.286 529.275 641.764 506.481 641.764H110.272C87.478 641.764 69 623.286 69 600.492V50.2015Z" fill="url(#paint0_linear_5013_6326)"/>
</g>
<path d="M323.264 136.033V185.044H316.331V136.033H323.264ZM283.765 156.884C283.738 146.217 289.193 139.473 296.716 139.473C304.079 139.473 309.56 146.217 309.56 156.884C309.56 167.632 304.079 174.35 296.716 174.35C289.193 174.35 283.738 167.632 283.765 156.884ZM290.375 156.884C290.348 164.166 292.901 168.143 296.716 168.116C300.424 168.143 302.923 164.166 302.95 156.884C302.923 149.629 300.424 145.653 296.716 145.653C292.901 145.653 290.348 149.629 290.375 156.884ZM348.36 147.104C348.387 156.293 352.095 165.241 360.236 168.761L356.045 174.242C350.617 171.609 346.963 166.719 344.921 160.673C342.825 167.095 339.063 172.361 333.474 175.102L329.175 169.513C337.558 165.724 341.374 156.293 341.428 147.104V139.795H348.36V147.104ZM354.755 156.938V151.403H364.374V136.033H371.145V185.044H364.374V156.938H354.755ZM418.651 136.087V173.329H411.826V164.085H405.216V158.658H411.826V153.767H405.216V148.232H411.826V136.087H418.651ZM377.54 146.62V141.192H388.073V135.98H394.898V141.192H404.732V146.62H377.54ZM379.959 157.959C379.905 152.316 384.768 148.34 391.405 148.34C398.123 148.34 402.959 152.316 403.013 157.959C402.959 163.602 398.123 167.525 391.405 167.525C384.768 167.525 379.905 163.602 379.959 157.959ZM386.085 184.076V170.158H393.017V178.595H419.672V184.076H386.085ZM386.354 157.959C386.327 160.78 388.423 162.312 391.405 162.312C394.361 162.312 396.537 160.78 396.564 157.959C396.537 155.218 394.361 153.687 391.405 153.66C388.423 153.687 386.327 155.218 386.354 157.959Z" fill="white"/>
<path d="M306.11 85.2146V106.495H302.499V85.2146H306.11ZM281.863 99.6275C286.587 97.967 289.005 93.8559 288.989 89.6643V86.8268H292.697V89.6643C292.681 93.727 295.067 97.5639 299.694 99.1116L297.856 101.949C294.535 100.788 292.165 98.4668 290.875 95.4842C289.585 98.6763 287.167 101.224 283.733 102.465L281.863 99.6275ZM286.828 113.75V104.464H290.44V110.848H306.916V113.75H286.828ZM334.162 87.8586V90.6638C334.13 94.2912 334.13 98.3378 333.001 104.432L329.39 104.045C330.535 98.37 330.535 94.2267 330.551 90.7283H313.139V87.8586H334.162ZM310.366 110.558V107.624H320.168V97.4995H323.715V107.624H336.935V110.558H310.366ZM349.349 93.469C349.333 97.967 352.041 103.094 356.636 105.238L354.637 108.075C351.348 106.528 348.913 103.4 347.608 99.7565C346.286 103.755 343.738 107.173 340.385 108.785L338.289 105.98C342.932 103.771 345.754 98.3217 345.77 93.469V91.0185H339.418V88.0521H355.443V91.0185H349.349V93.469ZM358.151 114.331V85.1824H361.73V96.5321H366.212V99.5308H361.73V114.331H358.151Z" fill="white"/>
<path d="M466.623 153.113V172.11H463.727V153.113H466.623ZM441.156 169.552V155.107H444.128V167.031C449.658 166.994 454.604 166.618 459.927 165.489L460.379 167.972C454.717 169.119 449.639 169.514 443.865 169.552H441.156ZM444.918 186.103V173.652H466.623V186.103H444.918ZM447.814 183.696H463.727V176.022H447.814V183.696Z" fill="white"/>
<g filter="url(#filter1_d_5013_6326)">
<circle cx="168.056" cy="129.997" r="68.7864" fill="black"/>
<path d="M141.823 109.901C154.815 111.596 164.721 104.017 168.05 100.016V161.751C144.002 148.597 140.545 121.704 141.823 109.901Z" fill="white"/>
<path d="M194.275 110.011C181.282 111.705 171.376 104.126 168.048 100.125V161.86C192.096 148.706 195.553 121.813 194.275 110.011Z" fill="white"/>
</g>
<g filter="url(#filter2_d_5013_6326)">
<path d="M96.5117 303.338C96.5117 285.103 111.294 270.32 129.529 270.32H484.467C502.702 270.32 517.484 285.103 517.484 303.338V377.627C517.484 395.862 502.702 410.644 484.467 410.644H129.529C111.294 410.644 96.5117 395.862 96.5117 377.627V303.338Z" fill="#0A0A0A"/>
</g>
<path d="M159.688 343.809V346.292H133.345V343.809H159.688ZM134.732 339.875C139.971 339.311 144.115 336.957 144.453 334.136H135.764V331.621H157.335V334.136H148.548C148.903 336.941 152.982 339.311 158.334 339.875L157.238 342.293C152.224 341.713 148.081 339.601 146.517 336.554C144.921 339.601 140.81 341.713 135.796 342.293L134.732 339.875ZM136.473 353.804C136.473 350.451 140.229 348.516 146.501 348.516C152.724 348.516 156.448 350.451 156.464 353.804C156.448 357.158 152.724 359.044 146.501 359.028C140.229 359.044 136.473 357.158 136.473 353.804ZM139.568 353.804C139.552 355.626 142.083 356.626 146.501 356.61C150.854 356.626 153.401 355.626 153.401 353.804C153.401 351.934 150.854 350.935 146.501 350.902C142.083 350.935 139.552 351.934 139.568 353.804ZM171.844 334.813C171.828 338.601 174.504 342.132 178.809 343.551L177.164 345.969C174.004 344.857 171.635 342.6 170.377 339.746C169.12 342.987 166.669 345.534 163.3 346.775L161.655 344.325C166.169 342.729 168.781 338.876 168.813 334.555V331.717H171.844V334.813ZM165.557 353.675C165.557 350.29 169.249 348.307 175.262 348.323C181.195 348.307 184.838 350.29 184.838 353.675C184.838 357.093 181.195 359.044 175.262 359.028C169.249 359.044 165.557 357.093 165.557 353.675ZM168.62 353.675C168.604 355.578 171.086 356.61 175.262 356.642C179.405 356.61 181.856 355.578 181.84 353.675C181.856 351.837 179.405 350.741 175.262 350.741C171.086 350.741 168.604 351.837 168.62 353.675ZM181.517 347.646V330.202H184.58V337.457H188.772V340.036H184.58V347.646H181.517Z" fill="white"/>
<path d="M329.278 328.256C333.575 328.256 336.788 331.784 337.417 337.513H342.936V326.021H347.337V357.877H342.936V341.076H337.469C336.998 347.188 333.714 350.926 329.278 350.926C324.458 350.926 321 346.56 321.035 339.574C321 332.64 324.458 328.256 329.278 328.256ZM325.296 339.574C325.279 344.307 326.903 346.892 329.278 346.874C331.671 346.892 333.26 344.307 333.26 339.574C333.26 334.858 331.671 332.273 329.278 332.273C326.903 332.273 325.279 334.858 325.296 339.574ZM379.648 325.986V357.772H375.352V341.704H372.872V356.41H368.715V326.545H372.872V338.107H375.352V325.986H379.648ZM350.9 348.376C354.131 343.73 355.249 339.189 355.511 333.286H352.053V329.723H359.318C359.301 337.495 358.445 344.307 354.393 350.367L350.9 348.376ZM358.375 350.332C361.903 345.093 362.794 339.678 362.969 333.286H360.262V329.723H366.864C366.846 337.792 366.165 345.634 361.903 352.218L358.375 350.332ZM386.425 328.885V336.255H388.66V328.885H392.293V350.402H382.827V328.885H386.425ZM386.425 346.804H388.66V339.713H386.425V346.804ZM393.76 350.402V328.885H397.358V336.255H399.663V328.885H403.226V333.566H405.741V326.021H410.003V357.807H405.741V345.337H403.226V350.402H393.76ZM397.358 346.804H399.663V339.713H397.358V346.804ZM403.226 341.739H405.741V337.198H403.226V341.739ZM446.994 327.208V329.094C446.977 330.998 446.977 333.531 446.435 336.674L442.034 336.325C442.401 334.055 442.506 332.256 442.541 330.701H424.813V327.208H446.994ZM421.565 341.425V337.967H432.393V333.286H436.795V337.967H450.417V341.425H421.565ZM424.778 346.944V343.416H446.994V351.904H429.25V354.14H447.867V357.563H424.813V348.9H442.593V346.944H424.778ZM470.572 327.243V330.806H464.25C464.355 333.985 466.66 337.321 471.515 338.7L469.455 342.228C465.892 341.198 463.429 339.085 462.014 336.447C460.565 339.381 457.98 341.792 454.295 342.892L452.129 339.434C457.107 337.827 459.604 334.177 459.779 330.806H453.352V327.243H470.572ZM458.032 346.944V343.416H479.2V352.009H462.538V354.035H480.143V357.493H458.067V348.76H474.764V346.944H458.032ZM469.769 336.081V332.553H474.764V326.021H479.2V342.193H474.764V336.081H469.769Z" fill="white"/>
<g filter="url(#filter3_d_5013_6326)">
<path d="M96.5117 471.182C96.5117 452.946 111.294 438.164 129.529 438.164H484.467C502.702 438.164 517.484 452.946 517.484 471.182V545.471C517.484 563.706 502.702 578.488 484.467 578.488H129.529C111.294 578.488 96.5117 563.706 96.5117 545.471V471.182Z" fill="#0A0A0A"/>
</g>
<path d="M156.754 511.362V513.813H148.016V520.874H159.785V523.389H133.345V520.874H144.985V513.813H136.634V500.271H156.496V502.753H139.697V511.362H156.754ZM172.005 504.301C172.005 507.703 174.617 510.927 179.034 512.168L177.584 514.619C174.279 513.619 171.812 511.507 170.538 508.831C169.265 511.765 166.75 514.055 163.364 515.135L161.849 512.749C166.266 511.411 168.974 507.993 168.974 504.301V503.882H162.687V501.431H168.974V497.949H172.038V501.431H178.293V503.882H172.005V504.301ZM165.492 519.584V517.102H184.58V526.968H181.517V519.584H165.492ZM181.517 515.715V498.046H184.58V505.559H188.772V508.17H184.58V515.715H181.517ZM223.337 498.046V526.936H220.403V498.046H223.337ZM198.8 510.524C198.8 504.269 201.25 500.351 205.023 500.367C207.489 500.351 209.392 501.996 210.424 504.849H214.631V498.594H217.533V525.517H214.631V516.199H210.44C209.392 519.069 207.489 520.729 205.023 520.713C201.25 520.729 198.8 516.795 198.8 510.524ZM201.605 510.524C201.589 515.119 202.879 517.827 205.023 517.811C207.151 517.827 208.505 515.119 208.505 510.524C208.505 505.913 207.151 503.221 205.023 503.237C202.879 503.221 201.589 505.913 201.605 510.524ZM211.069 507.332C211.23 508.315 211.31 509.379 211.31 510.524C211.31 511.653 211.23 512.717 211.069 513.684H214.631V507.332H211.069ZM251.099 498.046V515.232H248.036V507.912H242.651V505.397H248.036V498.046H251.099ZM227.013 512.62C231.495 511.056 234.252 507.155 234.236 503.172V502.528H227.98V500.045H243.554V502.528H237.363V503.14C237.347 506.8 239.959 510.363 244.328 511.846L242.748 514.264C239.507 513.152 237.121 510.83 235.864 507.977C234.606 511.201 232.075 513.797 228.625 515.07L227.013 512.62ZM231.656 521.487C231.64 518.053 235.348 516.054 241.426 516.038C247.472 516.054 251.18 518.053 251.196 521.487C251.18 524.921 247.472 526.92 241.426 526.936C235.348 526.92 231.64 524.921 231.656 521.487ZM234.687 521.487C234.671 523.438 237.186 524.55 241.426 524.518C245.634 524.55 248.149 523.438 248.165 521.487C248.149 519.52 245.634 518.408 241.426 518.424C237.186 518.408 234.671 519.52 234.687 521.487ZM274.218 505.397C274.185 510.669 277.378 515.989 281.859 517.972L280.021 520.391C276.7 518.811 274.073 515.57 272.718 511.62C271.38 515.86 268.72 519.343 265.254 521.035L263.384 518.456C267.93 516.441 271.122 510.911 271.122 505.397V500.464H274.218V505.397ZM284.471 527.001V498.046H287.534V527.001H284.471ZM314.845 498.046V506.59H319.036V509.138H314.845V519.036H311.749V498.046H314.845ZM292.113 513.426C298.884 511.395 303.076 507.541 303.672 502.786H293.338V500.238H307.009C307.009 507.816 301.85 513.313 293.403 515.876L292.113 513.426ZM296.498 526.323V516.876H299.593V523.841H316.038V526.323H296.498Z" fill="white"/>
<path d="M409.122 495.227V497.881C409.105 500.344 409.105 503.051 408.249 506.369L403.848 505.845C404.564 502.999 404.651 500.885 404.686 498.755H386.941V495.227H409.122ZM383.693 511.155V507.592H394.521V502.317H398.922V507.592H412.545V511.155H383.693ZM387.011 525.302V513.74H409.017V517.233H391.517V521.739H409.437V525.302H387.011ZM448.699 508.081V511.609H439.477V518.386H451.877V522.018H422.78V518.386H435.041V511.609H426.203V496.1H448.454V499.663H430.674V508.081H448.699ZM465.395 500.711C465.413 503.994 467.683 507.417 472.871 508.78L470.81 512.308C467.194 511.33 464.679 509.234 463.23 506.614C461.832 509.496 459.3 511.766 455.58 512.832L453.449 509.339C458.601 507.941 460.959 504.274 460.959 500.711H454.567V497.183H460.959V493.76H465.465V497.183H471.823V500.711H465.395ZM457.501 518.211V514.648H478.914V525.686H474.442V518.211H457.501ZM474.442 513.356V493.864H478.914V501.689H483.21V505.426H478.914V513.356H474.442Z" fill="white"/>
<defs>
<filter id="filter0_d_5013_6326" x="57.9942" y="0.675324" width="500.766" height="654.848" filterUnits="userSpaceOnUse" color-interpolation-filters="sRGB">
<feFlood flood-opacity="0" result="BackgroundImageFix"/>
<feColorMatrix in="SourceAlpha" type="matrix" values="0 0 0 0 0 0 0 0 0 0 0 0 0 0 0 0 0 0 127 0" result="hardAlpha"/>
<feOffset dy="2.75145"/>
<feGaussianBlur stdDeviation="5.50291"/>
<feComposite in2="hardAlpha" operator="out"/>
<feColorMatrix type="matrix" values="0 0 0 0 0 0 0 0 0 0 0 0 0 0 0 0 0 0 0.35 0"/>
<feBlend mode="normal" in2="BackgroundImageFix" result="effect1_dropShadow_5013_6326"/>
<feBlend mode="normal" in="SourceGraphic" in2="effect1_dropShadow_5013_6326" result="shape"/>
</filter>
<filter id="filter1_d_5013_6326" x="88.2637" y="52.9566" width="159.586" height="159.582" filterUnits="userSpaceOnUse" color-interpolation-filters="sRGB">
<feFlood flood-opacity="0" result="BackgroundImageFix"/>
<feColorMatrix in="SourceAlpha" type="matrix" values="0 0 0 0 0 0 0 0 0 0 0 0 0 0 0 0 0 0 127 0" result="hardAlpha"/>
<feOffset dy="2.75145"/>
<feGaussianBlur stdDeviation="5.50291"/>
<feComposite in2="hardAlpha" operator="out"/>
<feColorMatrix type="matrix" values="0 0 0 0 0 0 0 0 0 0 0 0 0 0 0 0 0 0 0.35 0"/>
<feBlend mode="normal" in2="BackgroundImageFix" result="effect1_dropShadow_5013_6326"/>
<feBlend mode="normal" in="SourceGraphic" in2="effect1_dropShadow_5013_6326" result="shape"/>
</filter>
<filter id="filter2_d_5013_6326" x="85.5059" y="262.066" width="442.984" height="162.332" filterUnits="userSpaceOnUse" color-interpolation-filters="sRGB">
<feFlood flood-opacity="0" result="BackgroundImageFix"/>
<feColorMatrix in="SourceAlpha" type="matrix" values="0 0 0 0 0 0 0 0 0 0 0 0 0 0 0 0 0 0 127 0" result="hardAlpha"/>
<feOffset dy="2.75145"/>
<feGaussianBlur stdDeviation="5.50291"/>
<feComposite in2="hardAlpha" operator="out"/>
<feColorMatrix type="matrix" values="0 0 0 0 0 0 0 0 0 0 0 0 0 0 0 0 0 0 0.35 0"/>
<feBlend mode="normal" in2="BackgroundImageFix" result="effect1_dropShadow_5013_6326"/>
<feBlend mode="normal" in="SourceGraphic" in2="effect1_dropShadow_5013_6326" result="shape"/>
</filter>
<filter id="filter3_d_5013_6326" x="0.485954" y="353.144" width="613.024" height="332.372" filterUnits="userSpaceOnUse" color-interpolation-filters="sRGB">
<feFlood flood-opacity="0" result="BackgroundImageFix"/>
<feColorMatrix in="SourceAlpha" type="matrix" values="0 0 0 0 0 0 0 0 0 0 0 0 0 0 0 0 0 0 127 0" result="hardAlpha"/>
<feOffset dy="11.0058"/>
<feGaussianBlur stdDeviation="48.0129"/>
<feComposite in2="hardAlpha" operator="out"/>
<feColorMatrix type="matrix" values="0 0 0 0 0 0 0 0 0 0 0 0 0 0 0 0 0 0 0.25 0"/>
<feBlend mode="normal" in2="BackgroundImageFix" result="effect1_dropShadow_5013_6326"/>
<feBlend mode="normal" in="SourceGraphic" in2="effect1_dropShadow_5013_6326" result="shape"/>
</filter>
<linearGradient id="paint0_linear_5013_6326" x1="308.377" y1="8.92969" x2="308.377" y2="641.764" gradientUnits="userSpaceOnUse">
<stop stop-color="#FF3E3E"/>
<stop offset="1" stop-color="#FF4B4B"/>
</linearGradient>
</defs>
</svg>
